<svg width="45" height="43" viewBox="0 0 45 43" fill="none" xmlns="http://www.w3.org/2000/svg">
<path fill-rule="evenodd" clip-rule="evenodd" d="M-46.0595 41.9008C-28.9993 44.9433 -30.9218 38.103 -17.5109 30.459C-11.7856 27.1916 -6.96911 27.8155 -1.44666 31.0002C2.17528 33.0879 6.71915 35.2921 10.8771 33.5784C15.385 31.7182 15.96 27.3602 17.2486 23.2581C20.555 12.7169 29.5697 10.1128 38.3604 5.48926C40.6335 4.29353 42.7625 2.53941 43.6077 0.117279C47.6726 -11.5359 28.6768 -17.6409 20.6293 -13.5679C15.5969 -11.0232 12.0126 -6.63056 6.95176 -4.04109C2.42815 -1.72648 -0.951082 -2.10045 -5.70997 -3.06376C-13.2712 -4.59298 -20.7603 -1.44485 -26.4156 3.36147C-26.8009 3.6897 -27.182 4.01997 -27.5642 4.35282C-32.7258 15.2362 -38.9405 27.849 -46.0595 41.9008Z" fill="#BCC9E7"/>
</svg>
