<svg width="113" height="167" viewBox="0 0 113 167" fill="none" xmlns="http://www.w3.org/2000/svg">
<path fill-rule="evenodd" clip-rule="evenodd" d="M-54.2795 166.411C-4.20325 148.091 -20.7465 135.91 1.7822 99.5061C11.3932 83.9559 25.1363 78.2684 45.0367 77.1612C58.0868 76.4329 73.7627 74.6095 81.8485 64.7615C90.6109 54.0798 84.8155 43.683 81.3308 32.8015C72.3625 4.84729 91.7575 -14.0672 107.174 -37.0809C111.16 -43.0321 113.829 -49.9965 111.994 -56.5451C103.16 -88.0484 42.8438 -73.6075 28.4629 -52.8895C19.4659 -39.9386 17.3865 -25.0576 8.38991 -11.9671C0.348314 -0.266128 -9.187 3.864 -23.3479 8.72299C-45.8452 16.4461 -60.3058 34.3186 -67.1506 53.1403C-67.6155 54.4243 -68.066 55.7066 -68.5153 56.9963C-63.8635 88.4184 -59.0867 125.175 -54.2795 166.411Z" fill="#BCC9E7"/>
</svg>
