<svg width="176" height="140" viewBox="0 0 176 140" fill="none" xmlns="http://www.w3.org/2000/svg">
<path fill-rule="evenodd" clip-rule="evenodd" d="M176 179.119C158.303 128.476 142.661 144.011 101.509 119.381C83.9303 108.872 78.2961 94.93 78.539 75.2093C78.6955 62.2768 77.7657 46.68 66.7881 38.051C54.8807 28.6992 42.1768 33.7395 29.0815 36.4666C-4.56143 43.4883 -25.3447 23.0989 -51.2685 6.36887C-57.9723 2.04321 -65.9726 -1.04913 -73.8332 0.33346C-111.648 6.9899 -99.32 67.4887 -76.0212 83.0458C-61.4576 92.778 -44.0814 95.8068 -29.3533 105.548C-16.1885 114.255 -12.0625 123.94 -7.43723 138.24C-0.0847549 160.958 19.8542 176.408 41.5042 184.4C42.9812 184.943 44.4575 185.472 45.9425 186C83.3368 183.467 127.027 181.161 176 179.119Z" fill="#BCC9E7"/>
</svg>
