<svg width="80" height="24" viewBox="0 0 80 24" fill="none" xmlns="http://www.w3.org/2000/svg">
<g clip-path="url(#clip0_669_1884)">
<path fill-rule="evenodd" clip-rule="evenodd" d="M80 0H44.8V24H80V0ZM55.8148 6.60814V11.843V17.0533C55.8148 17.0644 55.8151 17.0755 55.8154 17.0866V17.0867C55.816 17.1087 55.8165 17.1306 55.8148 17.1519C55.8099 17.2122 55.826 17.248 55.8954 17.2382C55.9119 17.2365 55.9284 17.237 55.9449 17.2376C55.9532 17.2378 55.9614 17.2382 55.9697 17.2382C56.2624 17.2382 56.5552 17.2382 56.848 17.2384H56.8502C57.4356 17.2386 58.0213 17.239 58.607 17.2382C58.6255 17.2382 58.6419 17.2383 58.6563 17.2385C58.7127 17.2392 58.7401 17.2395 58.7532 17.226C58.7655 17.2132 58.765 17.188 58.7639 17.1389V17.1388C58.7636 17.1222 58.7632 17.1029 58.7632 17.0804V6.62293C58.7632 6.61472 58.7628 6.6065 58.7626 6.59829C58.762 6.58186 58.7615 6.56543 58.7632 6.54901C58.7693 6.48741 58.7483 6.45538 58.6814 6.46277C58.6682 6.4644 58.6544 6.46386 58.6406 6.46332H58.6405C58.6336 6.46304 58.6264 6.46277 58.6194 6.46277C58.3239 6.46277 58.0283 6.46263 57.7325 6.4625H57.7324H57.7323C57.1405 6.46222 56.5487 6.46194 55.9573 6.46277C55.9398 6.46277 55.9244 6.46254 55.9108 6.46234C55.862 6.46161 55.8376 6.46124 55.8255 6.4733C55.8132 6.48545 55.8136 6.51023 55.8144 6.55999C55.8146 6.57398 55.8148 6.58994 55.8148 6.60814ZM70.4993 6.46313H66.1016C64.6361 6.46313 63.1707 6.46313 61.7065 6.4619L61.6903 6.46198L61.6732 6.46217C61.6513 6.46244 61.6297 6.46271 61.6073 6.4619C61.5578 6.45943 61.5404 6.48284 61.5442 6.52842C61.545 6.54234 61.5448 6.55571 61.5444 6.56926C61.5443 6.57611 61.5442 6.583 61.5442 6.59002V9.09104L61.5441 9.11696C61.5439 9.17064 61.5437 9.19704 61.5568 9.20992C61.5696 9.22248 61.595 9.22232 61.645 9.22184L61.6792 9.22168H64.4417C64.5319 9.22168 64.5764 9.22168 64.5985 9.24392C64.62 9.26576 64.6201 9.30888 64.6201 9.39416V17.1054C64.6201 17.1202 64.6199 17.1334 64.6197 17.145C64.6191 17.1893 64.6188 17.2124 64.6301 17.2245C64.6426 17.2377 64.6693 17.2376 64.7253 17.2374L64.7526 17.2373H64.7898H67.4036C67.4868 17.2373 67.5279 17.2373 67.5483 17.2166C67.5684 17.1965 67.5684 17.1564 67.5684 17.0771V9.36576C67.5684 9.34904 67.5681 9.33424 67.5679 9.3212C67.5672 9.2736 67.5668 9.2488 67.579 9.236C67.5922 9.22208 67.6203 9.22232 67.6789 9.22272L67.7157 9.22288H70.5278C70.6492 9.22288 70.6492 9.22288 70.6505 9.10336V9.0664V6.61466C70.6505 6.59763 70.6506 6.58249 70.6508 6.56902V6.56889C70.6514 6.51474 70.6517 6.48783 70.6384 6.47466C70.6253 6.46164 70.5989 6.462 70.5465 6.46272C70.5327 6.46291 70.517 6.46313 70.4993 6.46313Z" fill="white"/>
<path fill-rule="evenodd" clip-rule="evenodd" d="M35.2 0H0V24H35.2L44.8 12L35.2 0ZM15.5641 10.2462C15.6175 10.2895 15.6713 10.3331 15.7257 10.3768C15.7618 10.3548 15.7842 10.3247 15.8052 10.2964L15.8053 10.2963C15.8102 10.2898 15.815 10.2833 15.8198 10.277C16.0104 10.0506 16.1997 9.82288 16.389 9.59528L16.3891 9.5952L16.3893 9.59488L16.3897 9.59448C16.77 9.13984 17.149 8.6852 17.5282 8.22936C17.6037 8.13816 17.6012 8.09632 17.5145 8.0224C17.4464 7.96324 17.377 7.90534 17.3064 7.84743C16.7043 7.35462 16.0428 6.97022 15.2934 6.74722C14.7929 6.59938 14.2813 6.51806 13.761 6.48234C13.0822 6.43675 12.4095 6.45893 11.743 6.61293C9.4092 7.1501 7.6675 9.08192 7.4631 11.5583C7.4086 12.2261 7.46063 12.8877 7.63158 13.537C8.02056 15.0068 8.86536 16.1329 10.207 16.8746C10.9378 17.2786 11.7294 17.4918 12.5619 17.5583C13.2667 17.615 13.9642 17.5718 14.653 17.4166C15.8174 17.1542 16.8468 16.6244 17.7622 15.8667C17.8354 15.8064 17.865 15.746 17.865 15.6499C17.8621 14.471 17.8623 13.2914 17.8625 12.1122L17.8626 11.2282C17.8626 11.2128 17.8615 11.1973 17.8605 11.1818C17.8581 11.1473 17.8557 11.113 17.865 11.0815C17.8759 11.045 17.8562 11.0241 17.8371 11.0038C17.8213 10.987 17.8058 10.9705 17.8081 10.946C17.813 10.9054 17.7858 10.8992 17.7536 10.8992H17.6669H12.8369C12.8274 10.8992 12.8178 10.8994 12.8082 10.8997C12.7888 10.9002 12.7692 10.9008 12.7502 10.8992C12.7006 10.8942 12.6846 10.9189 12.6882 10.9645C12.6899 10.9834 12.6894 11.0029 12.6888 11.0222C12.6885 11.0318 12.6882 11.0413 12.6882 11.0507C12.6882 11.3094 12.6881 11.5682 12.688 11.8269C12.6877 12.3443 12.6874 12.8618 12.6882 13.3793C12.6882 13.4006 12.6878 13.4191 12.6875 13.435C12.6865 13.4823 12.686 13.5066 12.6979 13.519C12.7105 13.5321 12.737 13.5318 12.7918 13.5311H12.7918C12.8054 13.531 12.8208 13.5308 12.8382 13.5308H14.783C14.8002 13.5308 14.8154 13.5306 14.8288 13.5305C14.8827 13.5298 14.9089 13.5295 14.9214 13.5424C14.9332 13.5546 14.9328 13.5786 14.9321 13.6253C14.9318 13.6418 14.9315 13.661 14.9317 13.6836C14.9325 13.7961 14.9322 13.908 14.9319 14.0201C14.9318 14.0762 14.9317 14.1324 14.9317 14.1887V14.1928C14.9317 14.424 14.9317 14.4258 14.7223 14.5262C14.1091 14.8195 13.4612 14.9033 12.7923 14.8195C12.049 14.7271 11.4544 14.376 11.0184 13.7686C10.7347 13.3731 10.5798 12.9271 10.5216 12.4466C10.4486 11.833 10.5229 11.2429 10.8016 10.686C11.1373 10.017 11.6452 9.53656 12.3748 9.316C12.8865 9.1608 13.4042 9.20144 13.9171 9.31352C14.3817 9.41456 14.7867 9.64128 15.1596 9.92584C15.2962 10.0291 15.4291 10.1368 15.5641 10.2462ZM29.3235 8.0112C28.1777 6.96894 26.8126 6.47242 25.4016 6.46134C24.75 6.46257 24.2631 6.51554 23.7466 6.64984C22.2477 7.04039 21.0746 7.87818 20.2954 9.21616C19.4951 10.5886 19.3328 12.061 19.78 13.5751C20.2805 15.2679 21.347 16.4999 22.9971 17.1862C24.2644 17.7122 25.5774 17.7825 26.9018 17.435C28.4402 17.0322 29.6196 16.1414 30.3926 14.7517C31.0442 13.58 31.2188 12.3234 30.976 11.0112C30.758 9.83216 30.213 8.82192 29.3235 8.0112ZM22.9958 10.6576C23.4951 9.73728 24.2929 9.29624 25.0671 9.27896C26.6378 9.27528 27.6648 10.1586 27.9448 11.3833C28.1145 12.1213 28.0389 12.8383 27.6759 13.5086C27.2486 14.2958 26.5821 14.7542 25.6853 14.8564C24.8181 14.9562 24.0612 14.711 23.443 14.0876C23.0466 13.6884 22.8076 13.2018 22.706 12.6523C22.5772 11.9562 22.6565 11.2822 22.9958 10.6576Z" fill="white"/>
</g>
<defs>
<clipPath id="clip0_669_1884">
<rect width="80" height="24" fill="white"/>
</clipPath>
</defs>
</svg>
