<svg aria-hidden="true" style="position: absolute; width: 0; height: 0; overflow: hidden;" version="1.1" xmlns="http://www.w3.org/2000/svg" xmlns:xlink="http://www.w3.org/1999/xlink">
<defs>
<symbol id="icon-footer-right" viewBox="0 0 20 16">
<path fill="#bcc9e7" style="fill: var(--color1, #bcc9e7)" d="M23.969 0.093c-5.909 1.136-4.437 3.116-7.837 7.266-1.451 1.773-3.090 2.17-5.276 1.823-1.433-0.227-3.18-0.377-4.316 0.697-1.231 1.165-0.877 2.651-0.785 4.142 0.236 3.832-2.364 5.799-4.641 8.394-0.589 0.671-1.061 1.505-1.035 2.396 0.128 4.288 7.044 3.905 9.148 1.582 1.316-1.452 1.933-3.324 3.253-4.794 1.18-1.314 2.322-1.613 3.984-1.893 2.641-0.445 4.679-2.398 5.916-4.662 0.084-0.154 0.167-0.309 0.249-0.465 0.323-4.174 0.774-9.041 1.338-14.487z"></path>
</symbol>
<symbol id="icon-footer-left" viewBox="0 0 16 16">
<path fill="#bcc9e7" style="fill: var(--color1, #bcc9e7)" d="M15.308 29.121c0.676-5.724-1.561-4.952-4.368-9.257-1.199-1.837-1.087-3.449-0.136-5.345 0.623-1.243 1.267-2.795 0.615-4.142-0.707-1.461-2.168-1.567-3.558-1.914-3.571-0.892-4.614-3.835-6.325-6.664-0.442-0.731-1.068-1.404-1.89-1.638-3.956-1.123-5.612 5.304-4.099 7.897 0.945 1.621 2.477 2.726 3.438 4.356 0.859 1.457 0.801 2.586 0.574 4.185-0.36 2.541 0.835 4.966 2.545 6.75 0.117 0.122 0.234 0.242 0.352 0.362 3.721 1.502 8.038 3.319 12.852 5.409z"></path>
</symbol>
<symbol id="icon-hero-bottom" viewBox="0 0 11 16">
<path fill="#bcc9e7" style="fill: var(--color1, #bcc9e7)" d="M11.189 16.907c-1.228-4.446-2.652-3.2-6.031-5.544-1.443-1-1.847-2.229-1.715-3.92 0.086-1.109 0.094-2.453-0.796-3.255-0.965-0.869-2.079-0.508-3.214-0.347-2.915 0.415-4.576-1.452-6.698-3.033-0.549-0.409-1.215-0.719-1.895-0.644-3.269 0.36-2.555 5.622-0.652 7.088 1.19 0.917 2.658 1.274 3.862 2.192 1.076 0.821 1.374 1.675 1.689 2.929 0.501 1.991 2.118 3.429 3.923 4.236 0.123 0.055 0.246 0.109 0.37 0.162 3.21-0.008 6.957 0.038 11.154 0.137z"></path>
</symbol>
<symbol id="icon-hero-top" viewBox="0 0 17 16">
<path fill="#bcc9e7" style="fill: var(--color1, #bcc9e7)" d="M-17.138 15.591c6.348 1.132 5.633-1.413 10.623-4.257 2.13-1.216 3.923-0.984 5.977 0.201 1.348 0.777 3.038 1.597 4.586 0.959 1.677-0.692 1.891-2.314 2.371-3.84 1.23-3.922 4.585-4.891 7.856-6.612 0.846-0.445 1.638-1.098 1.952-1.999 1.513-4.336-5.556-6.608-8.55-5.092-1.873 0.947-3.206 2.581-5.089 3.545-1.683 0.861-2.941 0.722-4.711 0.364-2.813-0.569-5.6 0.602-7.704 2.391-0.143 0.122-0.285 0.245-0.427 0.369-1.921 4.050-4.233 8.743-6.882 13.971z"></path>
</symbol>
</defs>
</svg>
