<svg width="336" height="290" viewBox="0 0 336 290" fill="none" xmlns="http://www.w3.org/2000/svg">
<path fill-rule="evenodd" clip-rule="evenodd" d="M151.062 107.505C140.419 89.7524 148.285 89.9993 151.439 73.669C152.725 67.0101 150.525 62.5599 145.59 58.3056C142.353 55.5135 138.701 51.8676 138.994 47.2603C139.316 42.2608 143.373 40.2102 146.949 37.5603C156.131 30.7541 155.682 21.1376 157.279 11.0492C157.691 8.44046 158.7 5.77699 160.78 4.13249C170.796 -3.78946 183.037 12.507 181.733 21.6912C180.919 27.4309 177.824 32.4038 176.976 38.1885C176.215 43.3568 177.699 46.5017 180.213 50.7793C184.209 57.5718 183.621 65.8987 180.807 73.0195C179.208 77.0583 177.227 81.0543 176.757 85.4261C176.057 91.9718 172.259 98.3915 167.247 103.57C162.314 104.839 157.117 106.201 151.684 107.648L151.062 107.505Z" fill="#D0D9EE"/>
<path fill-rule="evenodd" clip-rule="evenodd" d="M154.704 106.844C157.287 100.346 159.117 94.4734 160.398 89.0746C159.1 85.8863 157.181 82.7259 154.636 79.5959C157.063 81.8111 159.311 83.8844 160.993 86.4321C163.353 75.2134 163.338 66.0664 162.91 57.5518C159.607 53.4009 155.248 49.686 149.825 46.4071C154.763 48.4683 159.075 51.2895 162.764 54.8728C161.989 41.7341 160.705 29.7669 166.405 13.4587C164.77 21.9107 164.219 29.2195 164.155 36.0132C167.105 32.1765 170.72 28.9142 174.992 26.2269C170.328 30.2327 166.717 34.4767 164.153 38.9638C164.263 50.265 165.524 60.3609 165.02 72.3413C167.979 68.4826 171.607 65.2056 175.896 62.5063C171.098 66.6269 167.412 71.0019 164.838 75.6297C164.249 84.2435 162.672 93.9105 159.121 105.681C157.666 106.062 156.196 106.45 154.704 106.844Z" fill="#E9EFF8"/>
<path fill-rule="evenodd" clip-rule="evenodd" d="M172.859 140.462C148.881 139.538 154.092 132.079 140.217 118.695C134.559 113.238 128.844 112.553 121.592 114.64C116.833 116.008 110.982 117.238 106.69 114.04C102.035 110.566 102.607 105.34 102.292 100.202C101.481 87.0073 91.8525 81.3586 83.0584 73.4315C80.7838 71.3824 78.8336 68.7204 78.5495 65.6672C77.1813 50.9588 100.754 49.4142 108.854 56.4864C113.917 60.905 116.793 67.0474 121.878 71.5275C126.42 75.5333 130.414 76.0854 136.159 76.3575C145.285 76.7852 153.004 82.6216 158.146 89.8502C161.06 93.9527 163.691 98.3987 167.642 101.619C173.56 106.437 177.399 114.175 179.264 122.303C177.379 127.882 175.417 133.775 173.39 139.951L172.859 140.462Z" fill="#D0D9EE"/>
<path fill-rule="evenodd" clip-rule="evenodd" d="M174.529 136.519C169.845 129.908 165.293 124.422 160.855 119.766C156.937 119.004 152.653 118.863 148.003 119.345C151.689 118.398 155.124 117.534 158.663 117.518C149.25 108.136 140.351 102.363 131.805 97.3906C125.685 97.9606 119.32 99.8297 112.708 103.004C117.83 99.5286 123.297 97.1399 129.109 95.8366C115.85 88.2741 103.409 81.945 91.159 66.1108C98.3412 73.0401 105.096 78.1975 111.658 82.5586C109.793 77.2755 108.906 71.7123 108.993 65.8782C109.94 72.9267 111.784 79.106 114.525 84.4264C125.578 91.4704 136.187 96.6375 147.512 104.706C145.631 99.4001 144.738 93.8156 144.824 87.9564C145.797 95.2076 147.721 101.542 150.593 106.962C158.592 112.982 166.992 120.624 176.188 131.508C175.639 133.158 175.088 134.826 174.529 136.519Z" fill="#E9EFF8"/>
<path fill-rule="evenodd" clip-rule="evenodd" d="M149.631 114.978C130.809 106.885 137.259 102.541 130.326 87.6207C127.498 81.5373 123.155 79.2382 116.733 78.6756C112.52 78.3051 107.479 77.4896 105.044 73.6248C102.405 69.4292 104.47 65.4415 105.801 61.2511C109.219 50.4903 103.287 43.036 98.721 34.0223C97.5397 31.692 96.8056 28.9728 97.5196 26.4532C100.96 14.3156 120.218 20.3178 124.495 28.4375C127.168 33.5112 127.568 39.2872 130.24 44.4167C132.625 49.0014 135.637 50.6668 140.131 52.6464C147.271 55.7872 151.625 62.8056 153.495 70.142C154.554 74.3045 155.281 78.6538 157.438 82.4314C160.67 88.0859 161.345 95.428 160.328 102.476C157.107 106.342 153.729 110.435 150.212 114.733L149.631 114.978Z" fill="#BCC9E7"/>
<path fill-rule="evenodd" clip-rule="evenodd" d="M152.173 112.346C150.478 105.642 148.542 99.8747 146.44 94.8045C143.553 92.996 140.182 91.5696 136.328 90.528C139.558 90.9035 142.561 91.2689 145.386 92.3409C140.777 81.9795 135.465 74.6505 130.187 68.0681C125.134 66.6454 119.487 66.1828 113.239 66.6843C118.392 65.4861 123.484 65.2591 128.518 66.0032C120.283 55.9117 112.319 47.0536 107.438 30.681C111.026 38.4045 114.819 44.5852 118.704 50.0722C118.846 45.291 119.854 40.5865 121.721 35.9646C120.303 41.8709 119.869 47.3599 120.413 52.4397C127.05 61.4415 133.911 68.8117 140.449 78.713C140.586 73.9089 141.595 69.1855 143.47 64.5435C142.01 70.6196 141.591 76.2569 142.209 81.4558C146.728 88.7056 151.066 97.3702 155.039 108.862C154.093 110.008 153.14 111.168 152.173 112.346Z" fill="#E9EFF8"/>
<path fill-rule="evenodd" clip-rule="evenodd" d="M193.188 263.918C272.062 263.918 336.001 268.008 336.001 273.053C336.001 278.099 272.062 282.188 193.188 282.188C114.315 282.188 50.377 278.099 50.377 273.053C50.377 268.008 114.315 263.918 193.188 263.918Z" fill="#D0D9EE"/>
<path d="M73.0888 231.859C73.0888 234.265 75.0628 236.234 77.4754 236.234H314.685C317.098 236.234 319.072 234.265 319.072 231.859L321.046 95.7828C321.046 93.3768 318.206 88.6796 313.002 89.0326L81.174 83.0447C78.1468 82.9666 75.22 84.1296 73.0763 86.2624C70.9325 88.3953 69.7596 91.3116 69.8312 94.3305L73.0888 231.859Z" fill="url(#paint0_linear_813_2402)"/>
<path d="M77.4181 227.662C77.4181 229.941 79.2856 231.805 81.5681 231.805H308.964C311.246 231.805 313.114 229.941 313.114 227.662L314.976 104.131C314.757 96.6974 308.228 94.0257 304.27 94.1835L82.0843 88.233C79.9576 88.176 77.9014 88.994 76.3951 90.4937C74.8888 91.9934 74.0604 94.046 74.1138 96.169L77.4181 227.662Z" fill="#ECF1FF"/>
<path d="M310.657 168.976C310.654 168.976 310.651 168.976 310.648 168.976C310.312 168.971 310.044 168.695 310.049 168.359L310.196 158.341C310.201 158.009 310.472 157.743 310.804 157.743C310.807 157.743 310.81 157.743 310.813 157.743C311.149 157.748 311.417 158.024 311.412 158.359L311.265 168.378C311.26 168.71 310.989 168.976 310.657 168.976Z" fill="url(#paint1_linear_813_2402)"/>
<path d="M311.019 144.426C311.016 144.426 311.013 144.426 311.01 144.426C310.674 144.422 310.405 144.145 310.411 143.81L310.975 105.44C310.964 103.161 310.271 101.341 308.915 100.044C306.383 97.6224 302.363 97.746 302.193 97.7539L231.178 95.8529C230.842 95.8445 230.577 95.5651 230.586 95.2299C230.595 94.8948 230.853 94.6094 231.211 94.6397L302.184 96.5407C302.625 96.5146 306.906 96.4407 309.756 99.167C311.36 100.701 312.179 102.814 312.191 105.446L311.626 143.828C311.622 144.16 311.35 144.426 311.019 144.426Z" fill="url(#paint2_linear_813_2402)"/>
<path d="M62.6182 248.746H330.426C330.729 248.746 330.976 248.499 330.976 248.197V236.122C330.976 235.821 330.729 235.573 330.426 235.573H62.6182C62.3158 235.573 62.0684 235.82 62.0684 236.122V248.197C62.0684 248.499 62.3158 248.746 62.6182 248.746Z" fill="url(#paint3_linear_813_2402)"/>
<g opacity="0.64">
<path d="M271.013 85.4103C270.985 85.4103 270.957 85.4091 270.929 85.4062C270.476 85.3601 270.146 84.9563 270.192 84.504C270.236 84.0738 270.274 83.6439 270.306 83.2142C270.34 82.7606 270.736 82.4247 271.19 82.4547C271.644 82.4888 271.984 82.8839 271.95 83.3373C271.917 83.7816 271.877 84.2256 271.832 84.6702C271.789 85.0942 271.431 85.4103 271.013 85.4103Z" fill="white"/>
<path d="M215.925 133.388C215.915 133.388 215.905 133.388 215.895 133.388C215.006 133.356 214.106 133.302 213.22 133.227C212.766 133.189 212.43 132.79 212.469 132.338C212.507 131.884 212.903 131.55 213.36 131.587C214.219 131.66 215.091 131.712 215.953 131.743C216.408 131.759 216.764 132.14 216.748 132.594C216.732 133.039 216.367 133.388 215.925 133.388ZM220.21 133.366C219.772 133.366 219.407 133.021 219.387 132.58C219.367 132.126 219.719 131.741 220.174 131.721C221.031 131.682 221.903 131.621 222.763 131.539C223.221 131.497 223.619 131.828 223.662 132.281C223.706 132.733 223.373 133.135 222.92 133.178C222.032 133.262 221.133 133.325 220.248 133.365C220.235 133.366 220.223 133.366 220.21 133.366ZM209.037 132.695C208.992 132.695 208.946 132.692 208.9 132.684C208.023 132.537 207.138 132.367 206.269 132.177C205.824 132.08 205.543 131.641 205.64 131.197C205.738 130.753 206.175 130.472 206.622 130.569C207.464 130.753 208.322 130.919 209.172 131.061C209.622 131.136 209.925 131.56 209.85 132.008C209.782 132.41 209.433 132.695 209.037 132.695ZM227.087 132.605C226.695 132.605 226.347 132.324 226.276 131.925C226.197 131.478 226.496 131.051 226.945 130.972C227.792 130.822 228.649 130.649 229.49 130.458C229.936 130.357 230.377 130.634 230.478 131.077C230.579 131.52 230.301 131.961 229.857 132.062C228.989 132.26 228.105 132.438 227.231 132.593C227.183 132.601 227.135 132.605 227.087 132.605ZM202.299 131.114C202.219 131.114 202.138 131.102 202.058 131.078C201.208 130.819 200.353 130.536 199.515 130.235C199.087 130.081 198.865 129.609 199.019 129.182C199.173 128.754 199.645 128.532 200.074 128.686C200.886 128.978 201.715 129.253 202.539 129.503C202.974 129.636 203.22 130.096 203.087 130.53C202.978 130.885 202.652 131.114 202.299 131.114ZM233.812 130.966C233.461 130.966 233.136 130.741 233.026 130.389C232.889 129.955 233.131 129.494 233.565 129.358C234.388 129.1 235.215 128.818 236.024 128.52C236.451 128.363 236.925 128.581 237.083 129.008C237.24 129.434 237.022 129.908 236.594 130.065C235.76 130.372 234.907 130.662 234.059 130.928C233.977 130.954 233.894 130.966 233.812 130.966ZM195.82 128.676C195.707 128.676 195.591 128.653 195.481 128.603L195.195 128.473C194.479 128.145 193.764 127.799 193.067 127.443C192.661 127.236 192.501 126.74 192.709 126.335C192.916 125.93 193.413 125.771 193.818 125.977C194.494 126.323 195.188 126.659 195.882 126.977L196.161 127.104C196.576 127.291 196.76 127.778 196.572 128.193C196.435 128.497 196.134 128.676 195.82 128.676ZM240.27 128.476C239.959 128.476 239.661 128.299 239.521 127.999C239.33 127.586 239.51 127.097 239.924 126.906C240.708 126.544 241.492 126.158 242.255 125.76C242.658 125.549 243.156 125.705 243.367 126.108C243.579 126.51 243.423 127.008 243.019 127.218C242.234 127.629 241.425 128.027 240.616 128.4C240.504 128.452 240.386 128.476 240.27 128.476ZM189.705 125.433C189.557 125.433 189.408 125.393 189.273 125.31C188.517 124.845 187.762 124.354 187.027 123.85C186.652 123.592 186.556 123.08 186.814 122.705C187.073 122.331 187.586 122.236 187.961 122.493C188.673 122.982 189.406 123.459 190.138 123.909C190.526 124.148 190.646 124.655 190.407 125.042C190.251 125.294 189.981 125.433 189.705 125.433ZM246.354 125.178C246.08 125.178 245.812 125.042 245.656 124.794C245.413 124.409 245.529 123.901 245.914 123.659C246.642 123.201 247.37 122.718 248.078 122.222C248.451 121.962 248.965 122.052 249.227 122.424C249.488 122.796 249.398 123.309 249.025 123.57C248.295 124.081 247.544 124.579 246.793 125.051C246.656 125.137 246.504 125.178 246.354 125.178ZM184.06 121.429C183.878 121.429 183.694 121.369 183.541 121.245C182.85 120.684 182.165 120.098 181.504 119.505C181.166 119.201 181.138 118.68 181.443 118.343C181.747 118.005 182.268 117.977 182.607 118.281C183.248 118.857 183.912 119.424 184.582 119.968C184.934 120.255 184.988 120.773 184.701 121.126C184.538 121.326 184.3 121.429 184.06 121.429ZM251.961 121.123C251.724 121.123 251.489 121.021 251.325 120.825C251.035 120.475 251.084 119.956 251.435 119.666C252.097 119.118 252.757 118.545 253.395 117.961C253.731 117.654 254.252 117.678 254.56 118.012C254.867 118.347 254.844 118.868 254.509 119.175C253.851 119.777 253.17 120.369 252.486 120.934C252.332 121.061 252.146 121.123 251.961 121.123ZM178.987 116.727C178.769 116.727 178.55 116.64 178.388 116.469C177.775 115.821 177.172 115.152 176.596 114.479C176.3 114.134 176.341 113.614 176.687 113.319C177.033 113.024 177.553 113.064 177.85 113.41C178.408 114.062 178.993 114.711 179.587 115.339C179.899 115.669 179.885 116.19 179.554 116.502C179.394 116.652 179.191 116.727 178.987 116.727ZM256.993 116.374C256.793 116.374 256.591 116.302 256.433 116.155C256.099 115.845 256.08 115.325 256.389 114.992C256.977 114.359 257.556 113.705 258.111 113.045C258.404 112.697 258.924 112.652 259.272 112.944C259.621 113.237 259.666 113.756 259.373 114.104C258.801 114.784 258.204 115.459 257.598 116.111C257.435 116.286 257.215 116.374 256.993 116.374ZM261.364 111.011C261.199 111.011 261.032 110.961 260.888 110.859C260.516 110.595 260.429 110.082 260.693 109.711C261.192 109.009 261.681 108.285 262.144 107.561C262.39 107.177 262.9 107.066 263.283 107.31C263.667 107.555 263.779 108.063 263.534 108.447C263.056 109.194 262.552 109.94 262.037 110.664C261.876 110.89 261.622 111.011 261.364 111.011ZM264.999 105.131C264.868 105.131 264.736 105.1 264.612 105.034C264.211 104.821 264.058 104.323 264.271 103.922C264.676 103.162 265.067 102.381 265.434 101.602C265.628 101.191 266.119 101.015 266.531 101.208C266.943 101.401 267.12 101.892 266.926 102.303C266.547 103.106 266.144 103.91 265.727 104.694C265.579 104.972 265.294 105.131 264.999 105.131ZM267.85 98.834C267.753 98.834 267.654 98.8169 267.559 98.7808C267.133 98.6202 266.918 98.1453 267.079 97.7201C267.382 96.9177 267.671 96.0939 267.936 95.2719C268.075 94.8394 268.541 94.6017 268.973 94.7407C269.406 94.88 269.645 95.3436 269.505 95.7763C269.232 96.624 268.934 97.4737 268.621 98.3016C268.497 98.631 268.183 98.834 267.85 98.834ZM269.87 92.2239C269.807 92.2239 269.744 92.2168 269.68 92.2019C269.237 92.0977 268.962 91.6547 269.067 91.2122C269.264 90.3744 269.443 89.5204 269.599 88.6742C269.681 88.2271 270.112 87.9313 270.558 88.0131C271.006 88.095 271.303 88.5239 271.22 88.9709C271.06 89.844 270.876 90.725 270.672 91.5893C270.582 91.9684 270.244 92.2239 269.87 92.2239Z" fill="white"/>
<path d="M174.56 111.392C174.304 111.392 174.052 111.274 173.891 111.051C173.629 110.69 173.372 110.326 173.12 109.959C172.862 109.584 172.957 109.072 173.333 108.814C173.707 108.557 174.221 108.652 174.479 109.027C174.723 109.383 174.973 109.736 175.226 110.086C175.494 110.454 175.411 110.969 175.043 111.235C174.896 111.341 174.727 111.392 174.56 111.392Z" fill="white"/>
</g>
<g opacity="0.64">
<path d="M165.058 71.5453C165.014 71.5453 164.97 71.5418 164.925 71.5345C164.476 71.4619 164.17 71.0389 164.243 70.5902C164.314 70.1509 164.392 69.7116 164.474 69.2732C164.558 68.8262 164.992 68.5318 165.436 68.6159C165.884 68.6997 166.179 69.1299 166.094 69.5768C166.015 70.002 165.94 70.4278 165.871 70.8535C165.805 71.2578 165.455 71.5453 165.058 71.5453Z" fill="white"/>
<path d="M166.229 66.1428C166.158 66.1428 166.085 66.1335 166.013 66.1139C165.573 65.9948 165.314 65.5424 165.433 65.104C165.663 64.2611 165.916 63.4123 166.186 62.5811C166.327 62.1489 166.791 61.9118 167.225 62.0523C167.658 62.1925 167.895 62.6566 167.754 63.0891C167.493 63.8949 167.247 64.7181 167.024 65.5355C166.925 65.9018 166.592 66.1428 166.229 66.1428ZM168.429 59.7062C168.324 59.7062 168.217 59.6861 168.114 59.6435C167.694 59.4697 167.493 58.9883 167.668 58.5683C167.933 57.9294 168.215 57.2832 168.507 56.6479C168.581 56.4851 168.657 56.3235 168.732 56.1624C168.925 55.7508 169.416 55.5736 169.829 55.7665C170.241 55.9594 170.419 56.4493 170.225 56.861C170.152 57.0181 170.078 57.176 170.005 57.3343C169.722 57.9506 169.448 58.5778 169.191 59.1978C169.06 59.5147 168.753 59.7062 168.429 59.7062ZM171.422 53.5973C171.284 53.5973 171.144 53.5624 171.014 53.4891C170.619 53.2641 170.481 52.7617 170.706 52.3668C171.141 51.6052 171.599 50.8467 172.067 50.1123C172.312 49.7288 172.821 49.6156 173.205 49.8596C173.589 50.1035 173.702 50.612 173.458 50.9957C173.005 51.7076 172.561 52.4431 172.139 53.1817C171.987 53.448 171.708 53.5973 171.422 53.5973ZM175.165 47.914C174.993 47.914 174.819 47.8602 174.67 47.7485C174.306 47.4751 174.234 46.9589 174.507 46.596C175.034 45.8978 175.586 45.2026 176.148 44.5296C176.44 44.1805 176.96 44.1336 177.309 44.4244C177.659 44.7153 177.706 45.2343 177.415 45.5835C176.87 46.2358 176.335 46.9095 175.825 47.5862C175.663 47.8008 175.416 47.914 175.165 47.914ZM260.043 47.332C259.796 47.332 259.553 47.2225 259.391 47.0133C258.871 46.3445 258.328 45.6787 257.775 45.0346C257.479 44.6894 257.519 44.1699 257.865 43.8741C258.21 43.5785 258.731 43.6189 259.027 43.9638C259.597 44.6282 260.158 45.3149 260.694 46.0048C260.972 46.364 260.907 46.881 260.547 47.1595C260.397 47.2757 260.219 47.332 260.043 47.332ZM179.61 42.753C179.402 42.753 179.194 42.6748 179.033 42.5183C178.708 42.2006 178.702 41.6794 179.02 41.3546C179.632 40.7302 180.269 40.1118 180.912 39.5166C181.246 39.2075 181.767 39.2276 182.077 39.5608C182.387 39.894 182.367 40.4147 182.033 40.7237C181.409 41.3008 180.792 41.9002 180.199 42.5055C180.038 42.6704 179.823 42.753 179.61 42.753ZM255.53 42.2343C255.32 42.2343 255.109 42.1544 254.949 41.9945C254.348 41.3978 253.724 40.8071 253.093 40.2387C252.754 39.9343 252.728 39.4138 253.033 39.0763C253.338 38.7395 253.859 38.7123 254.197 39.0165C254.848 39.6029 255.492 40.2124 256.112 40.828C256.435 41.1489 256.436 41.6698 256.115 41.9918C255.954 42.1535 255.742 42.2343 255.53 42.2343ZM184.679 38.204C184.435 38.204 184.194 38.0967 184.031 37.8909C183.75 37.5341 183.81 37.0165 184.168 36.7351C184.856 36.1933 185.566 35.6613 186.278 35.1543C186.649 34.89 187.164 34.9765 187.428 35.3467C187.692 35.7169 187.606 36.2307 187.235 36.4945C186.544 36.9862 185.856 37.5018 185.189 38.0271C185.038 38.1464 184.858 38.204 184.679 38.204ZM250.4 37.7556C250.225 37.7556 250.049 37.7002 249.899 37.5855C249.225 37.069 248.529 36.5631 247.832 36.0815C247.458 35.8229 247.364 35.3102 247.624 34.9364C247.883 34.5623 248.396 34.4698 248.771 34.7281C249.49 35.2249 250.207 35.7468 250.903 36.2797C251.264 36.5562 251.332 37.0729 251.055 37.4334C250.893 37.6446 250.648 37.7556 250.4 37.7556ZM190.287 34.3393C190.007 34.3393 189.734 34.1967 189.58 33.9397C189.345 33.5499 189.472 33.0444 189.862 32.8105C190.614 32.3603 191.386 31.923 192.157 31.5109C192.558 31.2964 193.057 31.4469 193.272 31.8477C193.488 32.2483 193.337 32.747 192.935 32.9617C192.188 33.3613 191.44 33.7853 190.711 34.2221C190.578 34.3014 190.432 34.3393 190.287 34.3393ZM244.738 33.9689C244.597 33.9689 244.455 33.9329 244.324 33.8571C243.592 33.4318 242.837 33.0181 242.082 32.6275C241.678 32.4182 241.52 31.9216 241.73 31.5181C241.939 31.1146 242.436 30.9573 242.841 31.1661C243.62 31.5689 244.397 31.9957 245.153 32.4343C245.547 32.6627 245.68 33.1665 245.451 33.5594C245.298 33.8221 245.022 33.9689 244.738 33.9689ZM196.341 31.2172C196.023 31.2172 195.721 31.0334 195.585 30.7247C195.402 30.3084 195.592 29.823 196.009 29.6404C196.811 29.2894 197.632 28.9533 198.449 28.6416C198.876 28.4794 199.351 28.6923 199.513 29.1165C199.676 29.5412 199.463 30.0168 199.037 30.1791C198.245 30.4813 197.449 30.8072 196.671 31.1477C196.564 31.1949 196.451 31.2172 196.341 31.2172ZM238.641 30.9275C238.534 30.9275 238.424 30.9067 238.319 30.8621C237.539 30.5321 236.74 30.2164 235.942 29.9236C235.515 29.7667 235.296 29.2937 235.453 28.8671C235.61 28.4404 236.084 28.2216 236.512 28.379C237.334 28.6808 238.158 29.0066 238.963 29.3468C239.382 29.5241 239.578 30.0071 239.4 30.4257C239.267 30.7392 238.962 30.9275 238.641 30.9275ZM202.74 28.885C202.383 28.885 202.055 28.6529 201.949 28.2944C201.82 27.8585 202.07 27.4009 202.507 27.2725C203.347 27.0255 204.203 26.7958 205.053 26.59C205.496 26.4824 205.941 26.7539 206.049 27.1955C206.156 27.6372 205.884 28.0821 205.442 28.1893C204.618 28.3891 203.787 28.6119 202.973 28.8514C202.895 28.874 202.816 28.885 202.74 28.885ZM232.214 28.6769C232.14 28.6769 232.065 28.6669 231.99 28.646C231.173 28.4171 230.34 28.2051 229.513 28.0162C229.07 27.9148 228.792 27.4734 228.894 27.0302C228.995 26.5874 229.437 26.3103 229.881 26.4117C230.734 26.6067 231.594 26.8251 232.436 27.0614C232.874 27.1842 233.13 27.6386 233.007 28.0761C232.905 28.4394 232.574 28.6769 232.214 28.6769ZM209.382 27.3802C208.984 27.3802 208.634 27.0924 208.569 26.6879C208.497 26.2392 208.802 25.8167 209.252 25.7446C210.115 25.606 210.993 25.4866 211.863 25.3898C212.316 25.3378 212.723 25.6647 212.774 26.1165C212.824 26.5681 212.499 26.9751 212.046 27.0255C211.202 27.1195 210.35 27.2353 209.514 27.3696C209.47 27.3766 209.425 27.3802 209.382 27.3802ZM225.551 27.2616C225.511 27.2616 225.471 27.2587 225.431 27.2527C224.592 27.1299 223.738 27.0264 222.893 26.9448C222.44 26.9011 222.108 26.4989 222.152 26.0465C222.196 25.5942 222.601 25.263 223.052 25.3066C223.924 25.3907 224.804 25.4976 225.67 25.6242C226.12 25.6901 226.432 26.1081 226.366 26.5579C226.306 26.9671 225.953 27.2616 225.551 27.2616ZM216.162 26.7296C215.719 26.7296 215.353 26.3782 215.339 25.9328C215.324 25.4785 215.681 25.0986 216.136 25.0841C217.011 25.0561 217.894 25.0495 218.773 25.0643C219.228 25.0719 219.591 25.4464 219.584 25.9008C219.576 26.3553 219.205 26.7304 218.746 26.7099C217.895 26.6963 217.037 26.7026 216.189 26.7291C216.18 26.7294 216.171 26.7296 216.162 26.7296Z" fill="white"/>
<path d="M263.208 51.8787C262.932 51.8787 262.663 51.7406 262.507 51.4892C262.279 51.1225 262.047 50.7584 261.809 50.397C261.559 50.0167 261.666 49.5063 262.046 49.2571C262.427 49.0078 262.938 49.1134 263.188 49.494C263.433 49.867 263.673 50.2427 263.908 50.6213C264.148 51.0077 264.029 51.5152 263.642 51.7548C263.507 51.8386 263.357 51.8787 263.208 51.8787Z" fill="white"/>
</g>
<path d="M255.144 62.1491C255.057 61.8902 254.815 61.7146 254.542 61.7122L246.735 61.6442C244.819 58.5481 242.395 55.7346 239.506 53.3444L240.518 45.6225C240.554 45.3515 240.413 45.0881 240.168 44.9663L231.786 40.7991C231.541 40.6773 231.246 40.7241 231.051 40.9155L225.486 46.3739C221.835 45.5129 218.125 45.2763 214.495 45.6152L209.737 39.4368C209.57 39.2203 209.284 39.1332 209.025 39.2199L200.146 42.1897C199.886 42.2766 199.71 42.5181 199.708 42.7912L199.64 50.5836C196.538 52.4963 193.72 54.9166 191.326 57.7998L183.59 56.79C183.318 56.7546 183.054 56.8949 182.932 57.1394L178.758 65.5065C178.636 65.7511 178.683 66.0459 178.874 66.2407L184.343 71.7954C183.48 75.4403 183.243 79.1437 183.582 82.7672L177.393 87.5166C177.176 87.683 177.089 87.9686 177.176 88.2275L180.151 97.0906C180.238 97.3497 180.48 97.525 180.753 97.5275L188.56 97.5955C190.476 100.692 192.9 103.505 195.789 105.895L194.777 113.617C194.742 113.888 194.882 114.152 195.127 114.274L203.509 118.441C203.754 118.563 204.049 118.516 204.245 118.324L209.809 112.866C213.461 113.727 217.171 113.963 220.801 113.625L225.558 119.803C225.725 120.02 226.011 120.107 226.271 120.02L235.15 117.05C235.409 116.963 235.585 116.722 235.587 116.448L235.655 108.656C238.757 106.743 241.575 104.323 243.97 101.44L251.706 102.45C251.977 102.485 252.241 102.345 252.363 102.1L256.538 93.7332C256.66 93.4887 256.613 93.1939 256.421 92.999L250.953 87.4443C251.815 83.7995 252.052 80.0959 251.713 76.4725L257.902 71.7231C258.119 71.5567 258.206 71.2712 258.12 71.012L255.144 62.1491Z" fill="url(#paint4_linear_813_2402)"/>
<path d="M217.664 88.4163C217.033 88.4163 216.399 88.3484 215.768 88.211C213.469 87.7104 211.503 86.3461 210.233 84.3692C208.962 82.3924 208.538 80.0398 209.039 77.745C209.541 75.4501 210.908 73.4876 212.888 72.2188C214.869 70.9501 217.226 70.5267 219.524 71.0279C221.823 71.5285 223.789 72.8928 225.06 74.8697C226.331 76.8464 226.755 79.1991 226.253 81.4939C225.751 83.7888 224.385 85.7513 222.404 87.0201C220.967 87.9408 219.332 88.4163 217.664 88.4163ZM217.631 71.8106C216.15 71.8106 214.698 72.2324 213.422 73.0499C211.665 74.1762 210.451 75.9184 210.006 77.9555C209.561 79.9927 209.937 82.081 211.065 83.8359C212.193 85.5907 213.939 86.8018 215.979 87.2463C218.02 87.691 220.112 87.3152 221.87 86.189C223.628 85.0627 224.841 83.3205 225.286 81.2834C225.732 79.2463 225.356 77.158 224.228 75.403C223.099 73.6482 221.354 72.4371 219.313 71.9926C218.754 71.8707 218.19 71.8106 217.631 71.8106Z" fill="white"/>
<path d="M217.427 102.745C213.972 102.745 210.468 101.969 207.171 100.33C199.071 96.3033 194.378 88.1356 194.377 79.663C194.377 76.2139 195.154 72.7144 196.796 69.4232C199.546 63.9125 204.281 59.8003 210.129 57.8444C215.975 55.8882 222.237 56.3222 227.758 59.0672C227.77 59.0731 227.781 59.0786 227.792 59.0844C227.793 59.0849 227.795 59.0856 227.796 59.0861C227.798 59.0872 227.8 59.0883 227.802 59.0895C229.261 59.8183 230.64 60.6982 231.902 61.706C232.024 61.8035 232.088 61.9469 232.088 62.0918C232.088 62.1999 232.053 62.309 231.98 62.4C231.809 62.613 231.498 62.6477 231.285 62.4775C230.064 61.5032 228.729 60.6533 227.317 59.9514C222.033 57.3242 216.04 56.909 210.443 58.7807C204.846 60.653 200.313 64.5891 197.682 69.8637C196.11 73.0138 195.366 76.3633 195.366 79.6645C195.367 87.7741 199.859 95.592 207.612 99.4462C218.519 104.869 231.814 100.423 237.247 89.5339C238.777 86.4679 239.568 83.1023 239.569 79.7083C239.569 79.1393 239.547 78.5696 239.503 78.0004C239.501 77.9871 239.501 77.974 239.501 77.9608C239.501 77.7059 239.698 77.4899 239.957 77.4696C240.226 77.448 240.467 77.6513 240.489 77.9235C240.535 78.5182 240.559 79.1135 240.558 79.708C240.558 83.2545 239.731 86.771 238.133 89.974C234.098 98.0591 225.914 102.745 217.427 102.745Z" fill="white"/>
<path d="M295.566 22.8887L292.027 23.1385C291.048 21.8049 289.848 20.6177 288.453 19.6388L288.633 16.1047C288.639 15.9807 288.566 15.8664 288.451 15.82L284.504 14.2337C284.388 14.1874 284.256 14.2192 284.175 14.3129L281.851 16.9854C280.166 16.7267 278.477 16.7529 276.845 17.037L274.467 14.4094C274.383 14.3174 274.251 14.2881 274.136 14.3368L270.222 16.0012C270.107 16.0498 270.036 16.1655 270.045 16.2894L270.295 19.8216C268.959 20.7995 267.77 21.9971 266.789 23.3892L263.249 23.21C263.125 23.2037 263.01 23.2768 262.964 23.3918L261.375 27.332C261.328 27.4471 261.36 27.579 261.454 27.6604L264.131 29.9799C263.872 31.662 263.898 33.348 264.183 34.9771L261.55 37.351C261.458 37.4342 261.429 37.5667 261.478 37.6809L263.145 41.5886C263.194 41.7028 263.31 41.7735 263.434 41.7648L266.972 41.515C267.952 42.8486 269.152 44.0359 270.546 45.0147L270.367 48.549C270.36 48.6729 270.434 48.7872 270.549 48.8336L274.496 50.42C274.611 50.4663 274.744 50.4345 274.825 50.3407L277.149 47.6681C278.834 47.927 280.523 47.9007 282.155 47.6167L284.533 50.2442C284.616 50.3364 284.749 50.3655 284.863 50.3169L288.778 48.6525C288.892 48.6038 288.963 48.4881 288.954 48.3642L288.704 44.832C290.04 43.8542 291.229 42.6565 292.21 41.2644L295.751 41.4436C295.875 41.4499 295.989 41.3769 296.036 41.2617L297.625 37.3217C297.671 37.2065 297.639 37.0747 297.546 36.9932L294.868 34.6736C295.127 32.9916 295.101 31.3055 294.817 29.6764L297.449 27.3026C297.541 27.2194 297.57 27.0869 297.522 26.9727L295.854 23.065C295.806 22.9508 295.69 22.8799 295.566 22.8887Z" fill="url(#paint5_linear_813_2402)"/>
<path opacity="0.56" d="M279.502 36.4279C279.318 36.4279 279.132 36.4156 278.945 36.39C277.857 36.2421 276.893 35.6803 276.229 34.8084C275.565 33.9364 275.281 32.8584 275.429 31.7731C275.578 30.6878 276.14 29.7252 277.013 29.0623C277.888 28.3993 278.968 28.1153 280.054 28.2639C282.298 28.5691 283.875 30.6404 283.57 32.8808C283.289 34.934 281.523 36.4279 279.502 36.4279ZM279.492 28.884C278.743 28.884 278.019 29.1264 277.413 29.5864C276.679 30.1429 276.207 30.951 276.083 31.862C275.826 33.7426 277.15 35.4813 279.034 35.7377C279.946 35.8618 280.853 35.6237 281.586 35.0674C282.319 34.5109 282.792 33.7028 282.916 32.7917C283.173 30.9111 281.849 29.1724 279.965 28.916C279.807 28.8946 279.649 28.884 279.492 28.884Z" fill="white"/>
<g opacity="0.64">
<path d="M302.018 29.4948C301.62 29.4948 301.27 29.2069 301.205 28.8024C301.138 28.389 301.057 27.9701 300.965 27.5573C300.866 27.1135 301.146 26.6738 301.591 26.5749C302.037 26.4757 302.476 26.7557 302.575 27.1995C302.674 27.6437 302.761 28.0949 302.832 28.5404C302.905 28.9893 302.599 29.4119 302.15 29.4843C302.106 29.4913 302.061 29.4948 302.018 29.4948Z" fill="white"/>
<path d="M279.527 55.9219H279.525C278.608 55.9219 277.677 55.8676 276.76 55.7606C276.308 55.7079 275.984 55.2991 276.037 54.8476C276.09 54.3965 276.499 54.0716 276.951 54.1259C277.805 54.2255 278.671 54.276 279.525 54.276C279.981 54.276 280.351 54.6444 280.351 55.099C280.351 55.5535 279.982 55.9219 279.527 55.9219ZM283.849 55.5069C283.462 55.5069 283.117 55.2338 283.04 54.8405C282.954 54.3943 283.245 53.9624 283.693 53.876C284.532 53.7134 285.372 53.4984 286.189 53.2373C286.624 53.0992 287.087 53.3373 287.226 53.77C287.365 54.2029 287.126 54.6663 286.692 54.8048C285.813 55.0858 284.91 55.3169 284.007 55.4918C283.954 55.502 283.901 55.5069 283.849 55.5069ZM272.608 54.8599C272.526 54.8599 272.442 54.8475 272.36 54.8217C271.48 54.5447 270.609 54.2127 269.769 53.8346C269.354 53.6479 269.169 53.1605 269.356 52.7461C269.543 52.3318 270.033 52.1477 270.447 52.3343C271.227 52.6857 272.038 52.9945 272.856 53.2519C273.29 53.3887 273.531 53.851 273.394 54.2843C273.283 54.6354 272.958 54.8599 272.608 54.8599ZM290.431 53.1346C290.14 53.1346 289.857 52.9798 289.708 52.7063C289.489 52.3077 289.636 51.8075 290.035 51.5894C290.786 51.1792 291.522 50.72 292.221 50.2243C292.592 49.9617 293.107 50.0481 293.37 50.419C293.634 50.7896 293.547 51.3033 293.176 51.5665C292.424 52.099 291.634 52.5927 290.827 53.0335C290.701 53.102 290.566 53.1346 290.431 53.1346ZM295.985 48.8852C295.78 48.8852 295.575 48.8094 295.415 48.6565C295.086 48.3421 295.075 47.8212 295.39 47.493C295.983 46.8749 296.546 46.2154 297.062 45.5326C297.336 45.1698 297.853 45.0975 298.217 45.3714C298.58 45.6453 298.652 46.1613 298.378 46.524C297.823 47.258 297.218 47.9672 296.581 48.6316C296.419 48.8003 296.202 48.8852 295.985 48.8852ZM299.993 43.1568C299.871 43.1568 299.748 43.1299 299.631 43.073C299.222 42.8732 299.053 42.3804 299.253 41.9722C299.629 41.2047 299.963 40.4054 300.247 39.5962C300.397 39.1676 300.867 38.9411 301.297 39.0912C301.727 39.2413 301.953 39.7108 301.803 40.1398C301.498 41.0098 301.138 41.8696 300.734 42.6951C300.591 42.9871 300.298 43.1568 299.993 43.1568ZM302.063 36.4819C302.023 36.4819 301.983 36.4789 301.943 36.473C301.492 36.4071 301.18 35.9891 301.246 35.5393L301.281 35.2917C301.386 34.5227 301.452 33.7432 301.475 32.9731C301.489 32.519 301.854 32.163 302.325 32.1756C302.78 32.1896 303.137 32.5693 303.123 33.0235C303.098 33.8509 303.028 34.6884 302.915 35.5129L302.878 35.7781C302.818 36.1874 302.466 36.4819 302.063 36.4819Z" fill="white"/>
<path d="M266.328 51.7468C266.163 51.7468 265.997 51.6978 265.852 51.5955C265.483 51.3347 265.116 51.0586 264.761 50.775C264.405 50.4912 264.348 49.9731 264.631 49.618C264.916 49.2631 265.435 49.2045 265.79 49.489C266.121 49.7527 266.462 50.0091 266.805 50.2516C267.177 50.5143 267.265 51.0281 267.001 51.3991C266.841 51.6259 266.586 51.7468 266.328 51.7468Z" fill="white"/>
</g>
<g opacity="0.64">
<path d="M256.887 36.2027C256.481 36.2027 256.127 35.9027 256.071 35.4895C256.011 35.0407 255.962 34.584 255.928 34.1318C255.894 33.6784 256.234 33.2832 256.688 33.249C257.135 33.2188 257.538 33.5546 257.572 34.008C257.604 34.428 257.649 34.8523 257.705 35.2692C257.766 35.7197 257.45 36.1342 256.999 36.1952C256.961 36.2002 256.924 36.2027 256.887 36.2027Z" fill="white"/>
<path d="M256.829 30.627C256.799 30.627 256.768 30.6253 256.737 30.6218C256.284 30.5713 255.959 30.1642 256.009 29.7125C256.03 29.5222 256.054 29.3316 256.08 29.1406C256.177 28.4306 256.307 27.7209 256.466 27.0302C256.567 26.5874 257.007 26.309 257.454 26.4122C257.897 26.5137 258.174 26.9553 258.072 27.3983C257.925 28.0408 257.804 28.7018 257.714 29.3625C257.69 29.5401 257.668 29.718 257.648 29.8953C257.601 30.3161 257.244 30.627 256.829 30.627ZM258.609 23.988C258.499 23.988 258.386 23.9657 258.278 23.9184C257.861 23.7358 257.672 23.2502 257.855 22.8341C258.219 22.0054 258.636 21.189 259.095 20.4078C259.325 20.0153 259.83 19.8843 260.223 20.1135C260.616 20.3432 260.748 20.8473 260.517 21.2395C260.091 21.966 259.703 22.7249 259.365 23.4957C259.229 23.8041 258.926 23.988 258.609 23.988ZM262.302 18.1853C262.11 18.1853 261.916 18.1184 261.76 17.9821C261.417 17.6832 261.382 17.1633 261.682 16.821C262.278 16.1398 262.92 15.4858 263.59 14.8774C263.928 14.5714 264.449 14.5969 264.755 14.9328C265.061 15.2692 265.036 15.7897 264.699 16.0954C264.075 16.6615 263.478 17.2699 262.923 17.9037C262.76 18.09 262.532 18.1853 262.302 18.1853ZM267.561 13.7465C267.284 13.7465 267.014 13.6072 266.858 13.3545C266.62 12.9674 266.741 12.4604 267.129 12.2224C267.9 11.7487 268.707 11.3147 269.528 10.9326C269.941 10.7401 270.431 10.9186 270.624 11.3306C270.816 11.7424 270.638 12.2321 270.225 12.4242C269.461 12.7797 268.71 13.1835 267.992 13.6242C267.858 13.7071 267.708 13.7465 267.561 13.7465ZM289.904 12.8804C289.777 12.8804 289.648 12.8513 289.528 12.7897C288.779 12.4062 287.998 12.0624 287.207 11.7679C286.781 11.609 286.564 11.1349 286.723 10.709C286.883 10.2829 287.358 10.0677 287.784 10.2258C288.634 10.5426 289.474 10.9123 290.28 11.3248C290.685 11.5322 290.846 12.028 290.638 12.4326C290.492 12.7169 290.203 12.8804 289.904 12.8804ZM273.9 11.0701C273.531 11.0701 273.196 10.8219 273.101 10.4491C272.989 10.0086 273.257 9.56092 273.698 9.44917C274.577 9.22676 275.478 9.05356 276.376 8.93483C276.83 8.87677 277.242 9.192 277.302 9.64256C277.362 10.0931 277.044 10.5068 276.593 10.5666C275.758 10.6771 274.921 10.8378 274.103 11.0446C274.035 11.0618 273.967 11.0701 273.9 11.0701ZM283.371 10.71C283.325 10.71 283.278 10.7061 283.231 10.6981C282.978 10.6549 282.723 10.6157 282.467 10.5809C281.884 10.5015 281.292 10.4448 280.708 10.412C280.253 10.3864 279.906 9.99789 279.931 9.54412C279.957 9.09055 280.341 8.74716 280.8 8.76852C281.428 8.80376 282.063 8.86483 282.69 8.94997C282.965 8.98745 283.238 9.02939 283.508 9.0755C283.957 9.1522 284.259 9.57752 284.182 10.0255C284.114 10.4266 283.765 10.71 283.371 10.71Z" fill="white"/>
<path d="M294.529 16.0229C294.336 16.0229 294.142 15.9555 293.985 15.8184C293.669 15.5409 293.34 15.2686 293.007 15.0092C292.648 14.7296 292.584 14.2121 292.864 13.8538C293.144 13.4957 293.662 13.4315 294.021 13.7113C294.379 13.9901 294.733 14.2827 295.073 14.581C295.415 14.881 295.449 15.4011 295.149 15.7429C294.986 15.9283 294.758 16.0229 294.529 16.0229Z" fill="white"/>
</g>
<path opacity="0.56" d="M279.501 42.9106C278.162 42.9106 276.822 42.6537 275.542 42.1394C271.415 40.4806 268.902 36.5049 268.902 32.3135C268.902 31.0006 269.149 29.6667 269.669 28.376C270.726 25.7549 272.743 23.7017 275.347 22.5946C277.951 21.4872 280.831 21.4585 283.457 22.5139C283.729 22.6232 283.997 22.7437 284.258 22.8747C284.584 23.0377 284.901 23.217 285.206 23.4114C285.211 23.4148 285.217 23.4183 285.222 23.4217C285.299 23.4704 285.374 23.5201 285.449 23.5707C285.543 23.6345 285.594 23.7384 285.594 23.844C285.594 23.9075 285.576 23.9715 285.537 24.0279C285.435 24.1789 285.23 24.2179 285.079 24.116C284.497 23.7225 283.869 23.389 283.211 23.1247C283.036 23.0545 282.86 22.9894 282.683 22.9294C281.159 22.4126 279.559 22.276 277.997 22.5168C277.993 22.5175 277.989 22.5181 277.985 22.5185C277.985 22.5188 277.983 22.5188 277.981 22.5192C277.978 22.5199 277.974 22.5204 277.971 22.521C277.97 22.521 277.97 22.521 277.97 22.521C277.23 22.6374 276.498 22.8387 275.787 23.125C275.779 23.1282 275.771 23.1316 275.763 23.1348C275.745 23.1422 275.726 23.1498 275.708 23.1572C275.674 23.1713 275.64 23.1856 275.605 23.2003C273.163 24.2386 271.272 26.164 270.281 28.622C269.798 29.8198 269.557 31.0741 269.557 32.3276C269.557 33.6464 269.824 34.9641 270.357 36.2138C271.397 38.6517 273.326 40.5392 275.788 41.5286C278.251 42.5184 280.952 42.4918 283.393 41.4531C285.835 40.4149 287.726 38.4893 288.718 36.0314C289.195 34.8468 289.438 33.5881 289.439 32.3258C289.439 31.8102 289.398 31.2937 289.317 30.7816C289.314 30.7641 289.313 30.7467 289.313 30.7296C289.313 30.5704 289.429 30.4306 289.591 30.4049C289.774 30.377 289.94 30.499 289.968 30.6785C290.055 31.2249 290.098 31.7755 290.098 32.3255C290.098 33.6719 289.839 35.0141 289.33 36.2773C288.272 38.8984 286.256 40.9516 283.652 42.0589C282.317 42.6265 280.91 42.9105 279.501 42.9106Z" fill="white"/>
<g opacity="0.64">
<path d="M188.568 121.289C188.282 121.289 188.004 121.14 187.852 120.874C187.637 120.498 187.418 120.125 187.194 119.755C186.96 119.365 187.085 118.859 187.475 118.625C187.866 118.391 188.372 118.516 188.607 118.905C188.837 119.286 189.062 119.67 189.284 120.057C189.509 120.452 189.372 120.955 188.977 121.18C188.848 121.254 188.707 121.289 188.568 121.289Z" fill="white"/>
<path d="M138.271 207.69C137.904 207.69 137.537 207.687 137.17 207.68C136.715 207.671 136.353 207.295 136.362 206.841C136.371 206.386 136.753 206.022 137.202 206.034C138.047 206.05 138.896 206.047 139.748 206.025C139.755 206.025 139.763 206.025 139.77 206.025C140.215 206.025 140.582 206.379 140.593 206.826C140.605 207.28 140.246 207.658 139.791 207.67C139.283 207.683 138.777 207.69 138.271 207.69ZM132.997 207.448C132.971 207.448 132.946 207.447 132.92 207.444C132.052 207.365 131.176 207.264 130.317 207.146C129.866 207.084 129.55 206.668 129.613 206.218C129.675 205.768 130.087 205.452 130.542 205.515C131.377 205.63 132.228 205.728 133.071 205.806C133.525 205.847 133.858 206.248 133.817 206.701C133.777 207.127 133.418 207.448 132.997 207.448ZM143.957 207.41C143.538 207.41 143.18 207.093 143.138 206.668C143.093 206.216 143.424 205.813 143.877 205.768C144.718 205.685 145.569 205.582 146.406 205.462C146.858 205.399 147.274 205.71 147.339 206.159C147.404 206.609 147.091 207.026 146.64 207.091C145.78 207.215 144.905 207.321 144.039 207.406C144.012 207.409 143.984 207.41 143.957 207.41ZM126.296 206.43C126.239 206.43 126.181 206.424 126.123 206.412C125.27 206.23 124.412 206.028 123.573 205.809C123.133 205.694 122.869 205.245 122.984 204.805C123.099 204.365 123.549 204.102 123.99 204.216C124.805 204.429 125.638 204.626 126.467 204.802C126.912 204.897 127.196 205.334 127.101 205.779C127.019 206.165 126.677 206.43 126.296 206.43ZM150.653 206.356C150.273 206.356 149.932 206.093 149.848 205.707C149.751 205.263 150.034 204.825 150.479 204.728C151.304 204.549 152.136 204.349 152.954 204.134C153.394 204.018 153.846 204.28 153.962 204.719C154.078 205.159 153.816 205.609 153.375 205.725C152.534 205.947 151.677 206.152 150.829 206.337C150.77 206.349 150.711 206.356 150.653 206.356ZM157.18 204.538C156.837 204.538 156.517 204.323 156.4 203.982C156.252 203.552 156.482 203.084 156.912 202.936C157.713 202.662 158.516 202.366 159.301 202.058C159.725 201.891 160.203 202.099 160.37 202.522C160.537 202.944 160.329 203.422 159.906 203.589C159.098 203.906 158.271 204.211 157.447 204.493C157.359 204.523 157.268 204.538 157.18 204.538ZM163.449 201.97C163.142 201.97 162.848 201.798 162.705 201.504C162.508 201.094 162.681 200.602 163.091 200.405C163.855 200.038 164.619 199.65 165.359 199.252C165.76 199.038 166.26 199.187 166.476 199.587C166.692 199.988 166.542 200.487 166.141 200.702C165.378 201.111 164.593 201.51 163.806 201.888C163.691 201.944 163.569 201.97 163.449 201.97ZM169.368 198.685C169.096 198.685 168.829 198.55 168.672 198.303C168.427 197.92 168.541 197.411 168.925 197.167C169.636 196.716 170.347 196.242 171.038 195.758C171.411 195.498 171.925 195.587 172.186 195.96C172.448 196.332 172.357 196.845 171.985 197.106C171.273 197.604 170.541 198.092 169.81 198.556C169.673 198.643 169.519 198.685 169.368 198.685ZM174.857 194.729C174.618 194.729 174.381 194.626 174.218 194.426C173.93 194.074 173.982 193.556 174.335 193.269C174.991 192.735 175.641 192.18 176.269 191.621C176.61 191.318 177.131 191.347 177.434 191.687C177.737 192.026 177.707 192.546 177.368 192.849C176.721 193.424 176.052 193.995 175.378 194.544C175.224 194.668 175.04 194.729 174.857 194.729ZM179.845 190.157C179.638 190.157 179.431 190.08 179.271 189.925C178.944 189.609 178.936 189.088 179.253 188.761C179.84 188.158 180.421 187.531 180.982 186.899C181.285 186.558 181.806 186.527 182.146 186.828C182.487 187.13 182.519 187.65 182.217 187.99C181.639 188.641 181.04 189.285 180.437 189.907C180.275 190.073 180.06 190.157 179.845 190.157ZM184.267 185.034C184.092 185.034 183.916 184.979 183.767 184.865C183.405 184.589 183.336 184.072 183.613 183.711C184.127 183.04 184.632 182.349 185.114 181.659C185.374 181.286 185.888 181.195 186.262 181.454C186.635 181.714 186.727 182.227 186.467 182.6C185.971 183.31 185.451 184.02 184.922 184.711C184.76 184.923 184.515 185.034 184.267 185.034ZM188.063 179.431C187.92 179.431 187.775 179.394 187.643 179.315C187.251 179.083 187.122 178.578 187.355 178.187C187.787 177.461 188.209 176.717 188.608 175.974C188.823 175.573 189.323 175.423 189.724 175.637C190.125 175.852 190.276 176.351 190.061 176.751C189.651 177.516 189.217 178.282 188.772 179.028C188.618 179.287 188.344 179.431 188.063 179.431ZM191.182 173.424C191.07 173.424 190.956 173.401 190.847 173.352C190.431 173.167 190.244 172.68 190.43 172.265C190.775 171.493 191.106 170.704 191.416 169.92C191.582 169.497 192.061 169.288 192.485 169.456C192.908 169.622 193.117 170.1 192.95 170.523C192.632 171.329 192.291 172.141 191.936 172.936C191.799 173.242 191.497 173.424 191.182 173.424ZM193.577 167.093C193.496 167.093 193.413 167.081 193.331 167.055C192.897 166.92 192.655 166.458 192.79 166.024C193.042 165.22 193.279 164.397 193.495 163.579C193.611 163.139 194.063 162.877 194.502 162.993C194.942 163.108 195.205 163.559 195.09 163.998C194.867 164.84 194.623 165.687 194.364 166.515C194.254 166.867 193.929 167.093 193.577 167.093ZM195.214 160.523C195.164 160.523 195.113 160.518 195.062 160.508C194.614 160.425 194.319 159.995 194.403 159.548C194.558 158.72 194.696 157.875 194.814 157.036C194.877 156.586 195.291 156.271 195.745 156.335C196.196 156.398 196.51 156.814 196.447 157.264C196.325 158.128 196.183 158.998 196.023 159.851C195.949 160.246 195.603 160.523 195.214 160.523ZM196.061 153.806C196.043 153.806 196.024 153.806 196.005 153.805C195.551 153.774 195.207 153.382 195.238 152.929C195.294 152.092 195.331 151.239 195.35 150.39C195.359 149.936 195.748 149.569 196.191 149.585C196.646 149.595 197.007 149.971 196.998 150.426C196.979 151.298 196.941 152.178 196.883 153.038C196.854 153.473 196.491 153.806 196.061 153.806ZM196.11 147.042C195.674 147.042 195.31 146.701 195.288 146.262C195.244 145.42 195.181 144.567 195.1 143.727C195.056 143.274 195.388 142.872 195.841 142.828C196.295 142.784 196.697 143.116 196.741 143.568C196.825 144.433 196.89 145.311 196.935 146.177C196.958 146.631 196.608 147.018 196.154 147.041C196.139 147.042 196.125 147.042 196.11 147.042ZM195.366 140.317C194.972 140.317 194.623 140.033 194.555 139.632C194.491 139.259 194.424 138.885 194.353 138.512C194.266 138.05 194.172 137.591 194.074 137.135C193.978 136.69 194.261 136.253 194.707 136.157C195.15 136.062 195.59 136.344 195.686 136.789C195.787 137.258 195.883 137.731 195.973 138.205C196.046 138.589 196.115 138.973 196.18 139.356C196.256 139.804 195.954 140.229 195.505 140.306C195.459 140.313 195.412 140.317 195.366 140.317ZM193.851 133.723C193.494 133.723 193.165 133.49 193.06 133.13C192.824 132.32 192.566 131.505 192.294 130.707C192.147 130.276 192.378 129.809 192.809 129.662C193.241 129.516 193.708 129.746 193.855 130.176C194.135 130.998 194.4 131.837 194.643 132.67C194.77 133.107 194.519 133.563 194.082 133.69C194.005 133.713 193.928 133.723 193.851 133.723ZM191.579 127.35C191.258 127.35 190.952 127.162 190.819 126.848C190.49 126.072 190.138 125.292 189.773 124.532C189.577 124.121 189.751 123.63 190.162 123.434C190.572 123.237 191.064 123.411 191.261 123.821C191.636 124.605 191.998 125.407 192.337 126.206C192.515 126.625 192.319 127.108 191.9 127.285C191.795 127.329 191.686 127.35 191.579 127.35Z" fill="white"/>
<path d="M119.728 204.622C119.64 204.622 119.55 204.608 119.462 204.578C119.04 204.434 118.619 204.286 118.201 204.133C117.774 203.976 117.554 203.504 117.711 203.077C117.867 202.649 118.341 202.43 118.769 202.587C119.175 202.736 119.583 202.88 119.993 203.019C120.425 203.166 120.655 203.633 120.508 204.064C120.391 204.406 120.071 204.622 119.728 204.622Z" fill="white"/>
</g>
<path opacity="0.64" d="M86.4278 175.443C86.1235 175.443 85.8308 175.274 85.6874 174.982C85.2952 174.186 84.9168 173.37 84.5629 172.559C84.3809 172.142 84.5722 171.657 84.9895 171.475C85.4069 171.295 85.8928 171.485 86.0745 171.902C86.4184 172.69 86.7859 173.483 87.1669 174.256C87.3678 174.664 87.1994 175.157 86.7907 175.358C86.6739 175.415 86.5499 175.443 86.4278 175.443ZM83.7543 169.07C83.4136 169.07 83.0951 168.858 82.9762 168.519C82.6822 167.68 82.4046 166.825 82.1508 165.978C82.0204 165.543 82.2684 165.084 82.7047 164.954C83.1391 164.824 83.6003 165.071 83.7307 165.507C83.9771 166.33 84.247 167.161 84.5323 167.975C84.6827 168.404 84.4564 168.874 84.0264 169.024C83.9365 169.055 83.8444 169.07 83.7543 169.07ZM81.8636 162.425C81.4852 162.425 81.1442 162.164 81.0591 161.779C80.9316 161.203 80.8108 160.615 80.6998 160.032C80.6443 159.741 80.5915 159.45 80.541 159.16C80.4628 158.712 80.7633 158.286 81.2118 158.208C81.6588 158.13 82.0871 158.429 82.1654 158.877C82.2147 159.16 82.2662 159.442 82.3197 159.725C82.4275 160.292 82.5454 160.864 82.6694 161.425C82.7676 161.868 82.4865 162.308 82.0421 162.406C81.9821 162.419 81.9222 162.425 81.8636 162.425ZM80.7703 155.602C80.3516 155.602 79.9932 155.286 79.951 154.861C79.8624 153.976 79.7935 153.08 79.7462 152.198C79.7217 151.744 80.0704 151.356 80.5252 151.332C80.9758 151.308 81.368 151.656 81.3924 152.109C81.4388 152.966 81.5058 153.837 81.5914 154.698C81.6368 155.15 81.3061 155.553 80.8529 155.598C80.8253 155.601 80.7976 155.602 80.7703 155.602ZM80.4984 148.699C80.4926 148.699 80.4872 148.699 80.4813 148.699C80.026 148.69 79.6647 148.314 79.674 147.859C79.6921 146.975 79.731 146.078 79.7899 145.192C79.8199 144.738 80.2192 144.398 80.6669 144.425C81.1213 144.455 81.4653 144.847 81.4349 145.301C81.3779 146.162 81.3399 147.034 81.3222 147.893C81.3133 148.342 80.9457 148.699 80.4984 148.699ZM81.0572 141.815C81.0186 141.815 80.9796 141.812 80.9403 141.807C80.4894 141.743 80.1757 141.326 80.2398 140.876C80.3658 139.994 80.5129 139.106 80.6782 138.237C80.7629 137.79 81.1941 137.497 81.6417 137.581C82.089 137.666 82.3827 138.096 82.298 138.543C82.1376 139.388 81.9946 140.251 81.8726 141.108C81.814 141.518 81.4611 141.815 81.0572 141.815ZM82.4426 135.041C82.3718 135.041 82.3002 135.032 82.2287 135.012C81.7888 134.895 81.5276 134.444 81.6455 134.005C81.8754 133.147 82.1286 132.283 82.3978 131.438C82.536 131.005 82.9994 130.765 83.4334 130.903C83.8672 131.041 84.1071 131.504 83.9693 131.937C83.7075 132.758 83.4617 133.597 83.2383 134.43C83.1398 134.798 82.8065 135.041 82.4426 135.041ZM84.6312 128.483C84.5291 128.483 84.4252 128.464 84.3243 128.424C83.9018 128.254 83.697 127.775 83.8663 127.353C84.199 126.526 84.5535 125.7 84.9201 124.896C85.1088 124.483 85.5974 124.3 86.0122 124.489C86.4267 124.677 86.6095 125.165 86.4208 125.579C86.0643 126.359 85.7201 127.163 85.3967 127.966C85.2672 128.288 84.9581 128.483 84.6312 128.483ZM87.5882 122.235C87.4543 122.235 87.3187 122.203 87.1928 122.134C86.7934 121.916 86.6473 121.415 86.8659 121.017C87.2942 120.236 87.7444 119.458 88.2043 118.704C88.4416 118.315 88.9485 118.192 89.3373 118.429C89.7263 118.665 89.8496 119.172 89.613 119.56C89.166 120.292 88.7283 121.049 88.3119 121.807C88.162 122.081 87.8796 122.235 87.5882 122.235ZM91.2678 116.384C91.102 116.384 90.9345 116.334 90.7892 116.231C90.4188 115.966 90.3329 115.453 90.5976 115.083C91.1148 114.36 91.6542 113.641 92.2004 112.946C92.4815 112.588 92.9993 112.526 93.3581 112.807C93.7162 113.087 93.7786 113.604 93.4976 113.962C92.9666 114.637 92.4423 115.336 91.9392 116.039C91.7786 116.264 91.5251 116.384 91.2678 116.384ZM95.6163 111.011C95.4183 111.011 95.2192 110.94 95.0611 110.797C94.7246 110.49 94.7007 109.97 95.0073 109.634C95.6034 108.981 96.224 108.332 96.8522 107.703C97.1737 107.382 97.6959 107.381 98.018 107.702C98.3404 108.023 98.341 108.544 98.0193 108.866C97.4087 109.477 96.8052 110.108 96.2259 110.743C96.0633 110.921 95.8402 111.011 95.6163 111.011ZM100.574 106.195C100.342 106.195 100.112 106.098 99.949 105.91C99.6514 105.566 99.6899 105.046 100.034 104.749C100.708 104.168 101.402 103.598 102.096 103.052C102.455 102.771 102.973 102.834 103.254 103.191C103.535 103.548 103.474 104.065 103.115 104.346C102.441 104.876 101.767 105.43 101.112 105.995C100.956 106.129 100.764 106.195 100.574 106.195ZM106.069 102.006C105.804 102.006 105.544 101.878 105.384 101.642C105.13 101.265 105.23 100.754 105.608 100.5C106.344 100.005 107.101 99.522 107.857 99.0631C108.247 98.827 108.754 98.9504 108.99 99.3389C109.227 99.7272 109.103 100.234 108.714 100.47C107.979 100.915 107.244 101.385 106.529 101.865C106.388 101.96 106.228 102.006 106.069 102.006ZM112.025 98.5065C111.725 98.5065 111.436 98.3424 111.29 98.0572C111.083 97.6525 111.244 97.1568 111.65 96.9503C112.441 96.5473 113.253 96.1575 114.061 95.7917C114.476 95.6036 114.964 95.7875 115.152 96.2013C115.34 96.6153 115.156 97.103 114.741 97.2907C113.956 97.6462 113.168 98.025 112.399 98.4165C112.279 98.4776 112.151 98.5065 112.025 98.5065ZM160.683 96.679C160.576 96.679 160.468 96.6582 160.364 96.6145C159.83 96.3907 159.281 96.1704 158.732 95.96C158.307 95.797 158.095 95.3209 158.258 94.8966C158.421 94.4725 158.898 94.2602 159.323 94.4234C159.888 94.6401 160.453 94.8667 161.003 95.0971C161.422 95.2733 161.62 95.7556 161.443 96.1747C161.31 96.4896 161.005 96.679 160.683 96.679ZM118.366 95.7443C118.03 95.7443 117.714 95.5377 117.592 95.2044C117.436 94.7776 117.655 94.3047 118.083 94.1485C118.915 93.844 119.767 93.5542 120.614 93.2872C121.049 93.1512 121.512 93.3907 121.649 93.8244C121.786 94.2578 121.545 94.7202 121.11 94.8569C120.287 95.1164 119.459 95.398 118.65 95.6939C118.556 95.7281 118.461 95.7443 118.366 95.7443ZM154.972 94.63C154.894 94.63 154.814 94.6187 154.734 94.5949C153.91 94.3469 153.066 94.1144 152.228 93.9036C151.787 93.7925 151.519 93.3452 151.63 92.9044C151.741 92.4636 152.189 92.1956 152.631 92.3074C153.493 92.5244 154.361 92.7636 155.21 93.0187C155.646 93.1498 155.893 93.6089 155.761 94.044C155.654 94.4003 155.326 94.63 154.972 94.63ZM124.993 93.7595C124.619 93.7595 124.281 93.5044 124.191 93.1258C124.086 92.6834 124.36 92.2402 124.803 92.1355C125.659 91.9337 126.535 91.7477 127.405 91.5829L127.437 91.577C127.887 91.5017 128.311 91.805 128.386 92.2534C128.461 92.7016 128.158 93.1257 127.709 93.2004C126.866 93.3602 126.015 93.541 125.183 93.7374C125.119 93.7523 125.055 93.7595 124.993 93.7595ZM148.238 93.0392C148.191 93.0392 148.144 93.0352 148.096 93.0267C147.246 92.8794 146.381 92.7497 145.525 92.6411C145.073 92.5839 144.753 92.1721 144.81 91.7212C144.867 91.2704 145.28 90.9495 145.732 91.0084C146.614 91.1199 147.504 91.2535 148.378 91.4052C148.827 91.483 149.127 91.9091 149.049 92.3569C148.98 92.757 148.632 93.0392 148.238 93.0392ZM131.81 92.5692C131.396 92.5692 131.04 92.2598 130.992 91.8399C130.94 91.3883 131.265 90.9803 131.717 90.9285C132.6 90.8274 133.496 90.7454 134.381 90.6846C134.833 90.6536 135.229 90.9956 135.26 91.4492C135.291 91.9026 134.948 92.2955 134.494 92.3267C133.634 92.3857 132.763 92.4654 131.905 92.5637C131.873 92.5673 131.841 92.5692 131.81 92.5692ZM141.36 92.2686C141.345 92.2686 141.331 92.2683 141.316 92.2674C140.457 92.2231 139.582 92.1981 138.718 92.1935C138.262 92.1909 137.895 91.8206 137.898 91.366C137.9 90.913 138.269 90.5476 138.722 90.5476C138.724 90.5476 138.725 90.5476 138.727 90.5476C139.617 90.5525 140.516 90.5781 141.401 90.6238C141.856 90.6473 142.206 91.0342 142.182 91.4881C142.16 91.9275 141.795 92.2686 141.36 92.2686Z" fill="white"/>
<path d="M164.064 104.574C163.787 104.373 163.412 104.369 163.13 104.565L155.096 110.157C150.883 108.38 146.355 107.26 141.661 106.911L137.075 98.2786C136.914 97.9757 136.578 97.8083 136.239 97.8612L124.633 99.6781C124.293 99.7314 124.025 99.9934 123.965 100.331L122.246 109.95C117.885 111.717 113.918 114.166 110.452 117.146L101.088 114.277C100.76 114.176 100.404 114.295 100.202 114.572L93.2817 124.049C93.0794 124.326 93.0755 124.701 93.2719 124.982L98.874 133.002C97.0937 137.208 95.9726 141.727 95.6221 146.413L86.9745 150.991C86.6712 151.152 86.5034 151.486 86.5566 151.825L88.3768 163.411C88.43 163.75 88.6925 164.017 89.0305 164.077L98.6668 165.793C100.437 170.147 102.891 174.107 105.875 177.567L103.002 186.914C102.901 187.241 103.019 187.597 103.297 187.798L112.791 194.706C113.069 194.908 113.444 194.912 113.725 194.716L121.76 189.124C125.973 190.901 130.501 192.02 135.195 192.37L139.781 201.002C139.942 201.305 140.277 201.473 140.616 201.42L152.223 199.602C152.562 199.549 152.83 199.287 152.891 198.95L154.609 189.331C158.971 187.563 162.938 185.114 166.404 182.135L175.767 185.004C176.096 185.104 176.452 184.986 176.654 184.709L183.574 175.231C183.776 174.955 183.78 174.58 183.584 174.299L177.982 166.279C179.762 162.073 180.883 157.553 181.234 152.868L189.881 148.29C190.185 148.129 190.352 147.794 190.299 147.456L188.479 135.87C188.426 135.531 188.163 135.264 187.825 135.203L178.189 133.488C176.418 129.134 173.965 125.174 170.98 121.714L173.854 112.367C173.955 112.039 173.836 111.684 173.559 111.482L164.064 104.574Z" fill="url(#paint6_linear_813_2402)"/>
<path d="M138.444 160.548C134.194 160.548 130.145 158.059 128.376 153.916C126.015 148.383 128.602 141.964 134.145 139.606C136.83 138.464 139.8 138.434 142.508 139.522C145.215 140.609 147.336 142.684 148.481 145.365C149.625 148.045 149.655 151.009 148.565 153.712C147.476 156.415 145.397 158.532 142.712 159.675C141.319 160.267 139.87 160.547 138.444 160.548ZM138.427 139.715C137.106 139.715 135.785 139.982 134.533 140.515C129.492 142.659 127.139 148.497 129.287 153.529C131.435 158.561 137.283 160.91 142.324 158.766C144.766 157.727 146.657 155.802 147.648 153.343C148.638 150.885 148.611 148.189 147.57 145.752C146.53 143.314 144.601 141.427 142.138 140.438C140.939 139.956 139.682 139.715 138.427 139.715ZM134.339 140.06H134.342H134.339Z" fill="white"/>
<path d="M138.282 178.648C124.331 178.648 112.032 168.494 109.804 154.314C109.567 152.809 109.453 151.313 109.453 149.835C109.454 135.91 119.626 123.632 133.83 121.408C135.511 121.145 137.213 121.029 138.905 121.063C139.258 121.07 139.611 121.083 139.963 121.103C140.226 121.118 140.43 121.336 140.43 121.595C140.43 121.605 140.43 121.614 140.429 121.624C140.413 121.896 140.192 122.103 139.907 122.089C137.94 121.977 135.947 122.077 133.984 122.384C132.425 122.628 130.916 122.998 129.467 123.48C118.457 127.148 110.85 137.362 110.459 148.901C110.448 149.212 110.442 149.523 110.442 149.835C110.442 151.262 110.553 152.708 110.781 154.161C112.932 167.854 124.812 177.66 138.283 177.66C139.712 177.66 141.158 177.55 142.614 177.322C156.332 175.175 166.155 163.318 166.155 149.871C166.156 148.444 166.045 146.999 165.817 145.545C165.035 140.566 162.92 135.899 159.701 132.051C159.624 131.959 159.586 131.847 159.586 131.735C159.586 131.594 159.647 131.453 159.764 131.356C159.974 131.181 160.285 131.209 160.461 131.418C163.794 135.404 165.984 140.236 166.794 145.392C167.03 146.897 167.145 148.394 167.145 149.872C167.144 163.796 156.972 176.074 142.768 178.298C141.261 178.533 139.762 178.648 138.282 178.648Z" fill="white"/>
<path d="M235.711 172.651L239.544 176.424C244.985 175.902 249.178 174.212 252.399 172.068C250.461 167.257 248.492 164.403 246.946 162.731C241.88 169.843 235.711 172.651 235.711 172.651Z" fill="url(#paint7_linear_813_2402)"/>
<path d="M262.39 158.533L253.344 144.415C252.751 152.379 250.056 158.365 246.945 162.731C248.492 164.404 250.46 167.258 252.398 172.069C260.435 166.72 262.39 158.533 262.39 158.533Z" fill="url(#paint8_linear_813_2402)"/>
<path d="M272.011 270.115C267.501 270.322 263.135 270.192 260.221 270.043C262.875 268.157 268.988 264.055 274.104 262.421L277.616 262.212C277.616 262.212 278.806 264.018 279.231 268.153C278.649 268.877 276.948 269.888 272.011 270.115Z" fill="url(#paint9_linear_813_2402)"/>
<path d="M260.184 270.069C260.195 270.06 260.208 270.051 260.22 270.043C263.135 270.193 267.5 270.323 272.01 270.116C276.947 269.889 278.648 268.877 279.23 268.152C279.25 268.343 279.27 268.532 279.286 268.733C279.359 269.64 278.684 270.437 277.775 270.506C274.081 270.785 264.924 271.416 260.507 271.185C259.925 271.154 259.709 270.407 260.184 270.069Z" fill="url(#paint10_linear_813_2402)"/>
<path d="M304.752 268.91C305.082 266.797 305.612 263.741 306.021 262.96C306.663 261.735 308.86 262.96 308.86 262.96C308.86 262.96 310.403 263.678 311.113 264.875C311.566 265.638 312.817 267.809 313.666 269.283C313.763 269.452 313.804 269.633 313.799 269.808L304.999 270.115C304.784 269.77 304.683 269.35 304.752 268.91Z" fill="url(#paint11_linear_813_2402)"/>
<path d="M313.799 269.808C313.785 270.31 313.386 270.765 312.824 270.78L306.555 270.952C305.893 270.971 305.319 270.627 305 270.115L313.799 269.808Z" fill="url(#paint12_linear_813_2402)"/>
<path d="M304.276 256.658C304.602 254.263 308.902 255.229 308.902 255.229C308.907 255.494 309.48 261.078 309.732 263.529C309.802 264.206 309.405 264.837 308.794 265.015C308.46 265.111 308.068 265.213 307.65 265.297C306.909 265.446 306.175 264.995 305.916 264.234C305.239 262.246 304.041 258.395 304.276 256.658Z" fill="url(#paint13_linear_813_2402)"/>
<path d="M278.307 257.511C277.819 257.496 278.501 260.025 277.763 262.51C277.597 263.071 277.177 263.511 276.591 263.518C276.212 263.523 275.762 263.516 275.305 263.479C274.618 263.424 274.066 262.892 274.003 262.207L273.402 255.76L278.307 257.511Z" fill="url(#paint14_linear_813_2402)"/>
<path d="M264.668 188.977C264.886 190.035 272.569 234.768 273.035 257.915C273.042 258.303 273.329 258.629 273.714 258.682C274.689 258.818 276.589 258.992 278.43 258.651C278.683 258.605 278.873 258.397 278.888 258.142C279.157 253.828 281.316 217.357 278.672 200.189C278.672 200.189 300.517 246.083 303.828 258.738C303.909 259.046 304.192 259.253 304.51 259.236C305.446 259.187 307.391 259.019 308.936 258.451C309.49 258.248 309.805 257.667 309.665 257.094C307.815 249.521 294.85 197.343 286.047 185.847L264.668 188.977Z" fill="url(#paint15_linear_813_2402)"/>
<path d="M278.671 200.475C278.743 200.475 278.816 200.448 278.871 200.393C278.985 200.283 278.987 200.102 278.876 199.989L275.951 197.003C275.84 196.89 275.658 196.888 275.545 196.998C275.432 197.109 275.43 197.29 275.541 197.403L278.466 200.389C278.522 200.446 278.596 200.475 278.671 200.475Z" fill="url(#paint16_linear_813_2402)"/>
<path d="M252.18 132.972C257.791 131.504 268.141 129.207 276.381 129.697C278.273 129.81 279.79 131.303 279.897 133.193C281.142 155.098 282.843 174.537 286.046 185.847C278.846 188.691 271.709 190.01 264.667 188.977C259.392 177.698 254.779 164.676 250.839 149.889C250.839 149.889 248.527 138.094 250.772 134.162C251.122 133.55 251.582 133.128 252.18 132.972Z" fill="url(#paint17_linear_813_2402)"/>
<path d="M265.674 117.627C265.674 117.627 267.091 126.065 267.513 129.967C267.582 130.601 267.25 131.201 266.682 131.493C265.133 132.289 261.827 133.57 258.225 132.394C257.632 132.2 257.243 131.627 257.256 131.005L257.503 119.739L265.674 117.627Z" fill="url(#paint18_linear_813_2402)"/>
<path d="M322.134 182.812L325.827 183.744C332.162 185.342 336.423 190.095 335.343 194.359L334.06 199.429C332.98 203.694 326.968 205.854 320.633 204.256L316.94 203.324C316.696 203.263 316.453 203.196 316.211 203.124L207.945 170.787L210.742 159.742L321.397 182.643C321.644 182.694 321.89 182.75 322.134 182.812ZM320.544 187.872C315.774 186.668 311.327 187.986 310.61 190.816C309.894 193.645 313.18 196.914 317.95 198.118C322.72 199.322 327.168 198.004 327.884 195.174C328.601 192.345 325.315 189.076 320.544 187.872Z" fill="url(#paint19_linear_813_2402)"/>
<path d="M174.746 144.734L196.17 150.14C197.695 150.525 198.955 151.595 199.58 153.036L202.786 160.424C203.701 162.532 203.078 164.992 201.269 166.413L194.932 171.393C193.696 172.364 192.078 172.708 190.553 172.323L169.129 166.917C165.897 166.102 163.152 169.469 164.677 172.427C168.327 179.504 175.024 185.101 183.549 187.252C198.955 191.139 212.59 181.822 216.336 167.028C220.082 152.235 212.52 137.569 197.113 133.682C188.589 131.531 180.032 133.279 173.452 137.775C170.701 139.654 171.514 143.919 174.746 144.734Z" fill="url(#paint20_linear_813_2402)"/>
<path d="M174.236 146.75L195.66 152.156C197.185 152.54 198.445 153.61 199.071 155.051L202.276 162.439C203.191 164.548 202.568 167.007 200.76 168.429L194.422 173.408C193.186 174.38 191.568 174.724 190.043 174.339L168.619 168.933C165.388 168.118 162.642 171.485 164.168 174.443C167.818 181.519 174.515 187.117 183.039 189.268C198.446 193.155 212.081 183.837 215.827 169.044C219.572 154.251 212.01 139.585 196.604 135.697C188.079 133.546 179.522 135.295 172.942 139.791C170.192 141.67 171.005 145.935 174.236 146.75Z" fill="url(#paint21_linear_813_2402)"/>
<path d="M321.73 184.42L325.422 185.351C331.758 186.95 336.019 191.703 334.939 195.967L333.655 201.037C332.575 205.301 326.564 207.462 320.228 205.864L316.536 204.932C316.292 204.87 316.048 204.803 315.807 204.731L207.541 172.394L210.338 161.349L320.993 184.25C321.24 184.302 321.485 184.358 321.73 184.42ZM320.14 189.48C315.37 188.276 310.922 189.594 310.206 192.423C309.489 195.253 312.775 198.522 317.546 199.726C322.316 200.929 326.763 199.611 327.48 196.782C328.196 193.953 324.91 190.683 320.14 189.48Z" fill="url(#paint22_linear_813_2402)"/>
<path d="M294.416 162.146C297.191 169.918 295.628 178.249 295.628 178.249L299.286 179.223C299.286 179.223 304.011 173.613 302.93 161.163C299.554 160.649 296.392 161.439 294.416 162.146Z" fill="url(#paint23_linear_813_2402)"/>
<path d="M302.931 161.164C302.809 159.764 302.618 158.282 302.335 156.707C299.863 142.977 282.229 132.415 278.08 130.102C277.694 129.887 277.225 130.177 277.239 130.618L277.828 149.283C287.649 150.601 292.297 156.21 294.417 162.146C296.392 161.439 299.555 160.649 302.931 161.164Z" fill="url(#paint24_linear_813_2402)"/>
<path d="M227.998 179.499C227.313 179.31 226.756 178.823 226.466 178.175C225.904 176.919 225.272 174.907 226.622 174.294C228.634 173.382 232.292 177.124 232.292 177.124L234.079 180.015L235.714 180.809C234.216 181.22 231.329 180.535 227.998 179.499Z" fill="url(#paint25_linear_813_2402)"/>
<path d="M295.874 176.424H291.352C291.352 176.424 295.02 178.62 295.142 180.93C295.264 183.24 293.686 188.024 292.947 189.326C292.14 190.751 303.188 187.205 299.287 176.424H295.874V176.424Z" fill="url(#paint26_linear_813_2402)"/>
<path d="M254.959 106.565C254.861 106.744 252.758 120.047 252.758 120.047L260.393 121.085L264.263 108.772C264.263 108.772 256.601 103.575 254.959 106.565Z" fill="url(#paint27_linear_813_2402)"/>
<path d="M261.434 109.997C261.651 110.262 261.732 110.611 261.655 110.945L260.148 117.49C260.125 117.59 260.09 117.684 260.041 117.773C259.768 118.264 258.772 119.758 257.266 118.653C255.983 117.711 254.79 116.863 253.752 116.691C253.146 116.59 252.578 117.012 252.484 117.619C252.291 118.867 251.953 121.395 251.969 123.683C251.973 124.257 252.424 124.728 252.997 124.768C254.509 124.875 257.469 124.995 259.917 124.557C260.319 124.485 260.648 124.199 260.775 123.811C261.334 122.105 262.92 117.329 263.576 116.05C264.185 114.861 265.958 114.659 266.777 114.631C267.088 114.62 267.378 114.483 267.582 114.248C268.194 113.544 269.15 111.975 267.308 110.442C266.85 110.06 266.796 109.372 267.168 108.907C267.835 108.074 268.416 106.729 266.986 105.32C265.539 103.893 263.902 104.254 262.865 104.737C262.406 104.95 261.839 104.857 261.511 104.472C261.365 104.301 261.148 104.185 260.828 104.222C260.225 104.291 259.685 103.895 259.611 103.292C259.486 102.26 258.931 101.046 257.101 100.698C253.745 100.059 252.08 103.415 252.146 105.771C252.213 108.126 255.891 108.611 257.976 108.215C259.508 107.924 260.836 109.264 261.434 109.997Z" fill="url(#paint28_linear_813_2402)"/>
<path d="M262.994 118.462C262.994 118.462 263.055 114.353 264.72 113.963C266.385 113.573 268.186 114.77 266.767 117.234C265.003 120.299 262.994 118.462 262.994 118.462Z" fill="url(#paint29_linear_813_2402)"/>
<path fill-rule="evenodd" clip-rule="evenodd" d="M81.5369 69.4717C78.0962 72.1866 75.6095 71.4433 75.2485 70.2311C74.89 69.0173 78.0697 67.5624 81.5487 69.0522C82.0067 68.9372 82.4649 68.83 82.9237 68.7267C86.7924 67.8666 90.7536 67.4474 94.7056 67.4384C98.6629 67.4309 102.619 67.8323 106.491 68.6209C110.368 69.407 114.163 70.5867 117.808 72.1252C121.46 73.6672 124.96 75.577 128.224 77.8349C131.489 80.0892 134.513 82.6943 137.219 85.6048C137.397 85.7976 137.116 86.0955 136.937 85.9063C136.608 85.5549 136.276 85.2064 135.938 84.8646C133.167 82.0567 130.089 79.5594 126.793 77.4074C123.515 75.2633 120.018 73.4622 116.381 72.0225C112.719 70.5704 108.907 69.4925 105.031 68.7993C101.179 68.1084 97.2542 67.806 93.3365 67.9105C89.396 68.0148 85.468 68.5315 81.6326 69.4694C81.598 69.4776 81.5653 69.479 81.5369 69.4717ZM85.9038 67.8277C85.9038 67.8277 85.5714 66.455 84.8468 65.1989C84.486 64.5732 84.0243 63.9907 83.4554 63.6237C82.8898 63.2575 82.2145 63.1098 81.4664 63.4027C79.9643 63.9753 80.3321 65.0139 81.4339 65.9313C81.9852 66.3962 82.7083 66.807 83.4927 67.1581C84.2773 67.5096 85.1091 67.7365 85.9038 67.8277ZM88.2718 68.6117C87.9068 68.7567 87.5471 68.9472 87.2082 69.1819C86.8678 69.4218 86.5468 69.6977 86.2561 69.9892C85.6719 70.5675 85.2105 71.2587 84.9334 71.8933C84.3815 73.1609 84.547 74.2456 85.836 74.2219C86.1566 74.2121 86.4349 74.1297 86.6738 73.9793C86.9128 73.8288 87.1138 73.6124 87.2829 73.3496C87.4539 73.0868 87.594 72.7816 87.7109 72.4492C87.8276 72.1243 87.9196 71.7776 87.9938 71.4263C88.2884 70.0283 88.2718 68.6117 88.2718 68.6117ZM92.6748 67.1526C92.6748 67.1526 92.5093 65.7514 91.9407 64.4238C91.6557 63.7617 91.2698 63.1159 90.7518 62.6772C90.2357 62.2465 89.5895 62.0371 88.8124 62.2144C87.2612 62.6025 87.4998 63.6926 88.4752 64.7221C88.9621 65.236 89.6311 65.7752 90.364 66.2002C90.7317 66.411 91.1157 66.6107 91.5047 66.7768C91.8935 66.943 92.2859 67.0734 92.6748 67.1526ZM94.9291 68.2198C94.1725 68.4217 93.4143 68.8412 92.7658 69.3449C92.117 69.8718 91.5776 70.4829 91.2245 71.0728C90.8732 71.6707 90.7068 72.2528 90.7895 72.6891C90.8709 73.1307 91.1946 73.4227 91.8431 73.5057C93.1253 73.6479 93.8578 72.3593 94.3221 70.9897C94.7817 69.6227 94.9291 68.2198 94.9291 68.2198ZM99.467 67.303C99.467 67.303 99.4652 65.8884 99.0542 64.4954C98.85 63.7944 98.5402 63.1179 98.0774 62.6278C97.6149 62.1435 97.0025 61.8272 96.2138 61.9319C94.6335 62.1312 94.7416 63.2321 95.5873 64.3881C96.0091 64.9698 96.6114 65.5461 97.2874 66.0798C97.6269 66.3412 97.9834 66.5801 98.3514 66.7831C98.7176 66.9858 99.0929 67.1756 99.467 67.303ZM101.585 68.6242C101.197 68.6823 100.804 68.789 100.42 68.933C100.036 69.0785 99.6584 69.2783 99.3071 69.4942C98.955 69.7139 98.6278 69.9554 98.3366 70.2119C98.0435 70.4757 97.787 70.7528 97.5779 71.0288C96.7404 72.1358 96.6447 73.2303 97.9115 73.5112C99.1719 73.8254 100.051 72.5943 100.666 71.3059C101.277 70.0088 101.585 68.6242 101.585 68.6242ZM105.171 68.0656C105.171 68.0656 105.21 67.7109 105.216 67.182C105.224 66.6534 105.203 65.9455 105.075 65.2334C104.95 64.5219 104.719 63.8062 104.316 63.2603C103.917 62.7076 103.338 62.3649 102.548 62.3574C101.76 62.3467 101.352 62.6541 101.239 63.084C101.124 63.5192 101.298 64.1025 101.65 64.7182C102.002 65.346 102.531 66.0151 103.146 66.6022C103.759 67.1932 104.455 67.7318 105.171 68.0656Z" fill="#99A9D4"/>
<path fill-rule="evenodd" clip-rule="evenodd" d="M101.142 207.836L90.6507 213.071L97.5705 224.494C98.5318 226.077 96.9019 227.991 95.1532 227.328L76.3801 220.193L35.0473 240.818C29.6025 243.535 23.0172 241.391 20.3373 236.029L1.4146 198.17C-1.26533 192.809 0.975656 186.261 6.42046 183.544L72.5159 150.562C77.9607 147.845 84.5479 149.993 87.226 155.351L106.148 193.209C108.828 198.572 106.587 205.119 101.142 207.836Z" fill="#D0D9EE"/>
<path d="M33.0265 211.692L31.6424 209.233L33.4528 195.031L37.2898 192.875L35.6374 206.988L33.5623 207.471L45.9987 200.484L47.6749 203.462L33.0265 211.692ZM43.4023 210.228L41.5356 206.911L39.9724 203.87L38.3089 200.914L41.7622 198.974L46.9684 208.224L43.4023 210.228ZM57.5586 202.63C56.2646 203.357 54.9282 203.692 53.5495 203.635C52.1622 203.563 50.8324 203.083 49.5598 202.195C48.2873 201.306 47.1643 199.997 46.1908 198.267C45.2172 196.537 44.6811 194.899 44.5822 193.351C44.4833 191.802 44.7677 190.425 45.4354 189.219C46.0946 187.997 47.0712 187.022 48.3653 186.295C49.6744 185.56 51.015 185.232 52.3871 185.312C53.7659 185.369 55.0915 185.842 56.3641 186.731C57.6366 187.619 58.7596 188.928 59.7331 190.658C60.7067 192.388 61.2428 194.027 61.3417 195.575C61.4406 197.123 61.1604 198.508 60.5012 199.729C59.8486 200.927 58.8677 201.894 57.5586 202.63ZM55.819 199.539C56.4359 199.192 56.8728 198.719 57.1295 198.12C57.4012 197.512 57.4534 196.76 57.2859 195.864C57.1335 194.96 56.7229 193.913 56.0541 192.725C55.3854 191.537 54.7039 190.643 54.0098 190.043C53.3307 189.435 52.6606 189.089 51.9995 189.005C51.3533 188.912 50.7218 189.04 50.1049 189.386C49.503 189.724 49.0662 190.198 48.7944 190.806C48.5377 191.405 48.4856 192.157 48.638 193.061C48.8055 193.957 49.2236 194.999 49.8923 196.187C50.5611 197.376 51.235 198.274 51.9141 198.882C52.6082 199.482 53.2783 199.828 53.9244 199.92C54.5856 200.004 55.2171 199.877 55.819 199.539ZM63.9068 194.341L62.5227 191.882L64.3331 177.68L68.1701 175.524L66.5177 189.637L64.4426 190.12L76.879 183.133L78.5552 186.111L63.9068 194.341ZM74.2826 192.877L72.416 189.56L70.8527 186.519L69.1892 183.563L72.6425 181.623L77.8487 190.873L74.2826 192.877Z" fill="#1D1C4A"/>
<defs>
<linearGradient id="paint0_linear_813_2402" x1="217.747" y1="225.773" x2="161.902" y2="57.9394" gradientUnits="userSpaceOnUse">
<stop stop-color="#BCC9E7"/>
<stop offset="1" stop-color="#AAB9DE"/>
</linearGradient>
<linearGradient id="paint1_linear_813_2402" x1="310.049" y1="163.359" x2="311.412" y2="163.359" gradientUnits="userSpaceOnUse">
<stop stop-color="#DAE3FE"/>
<stop offset="1" stop-color="#E9EFFD"/>
</linearGradient>
<linearGradient id="paint2_linear_813_2402" x1="230.586" y1="119.532" x2="312.191" y2="119.532" gradientUnits="userSpaceOnUse">
<stop stop-color="#DAE3FE"/>
<stop offset="1" stop-color="#E9EFFD"/>
</linearGradient>
<linearGradient id="paint3_linear_813_2402" x1="211.91" y1="42.4733" x2="205.961" y2="119.95" gradientUnits="userSpaceOnUse">
<stop stop-color="#8892A4"/>
<stop offset="1" stop-color="#BCC9E7"/>
</linearGradient>
<linearGradient id="paint4_linear_813_2402" x1="229" y1="48.8255" x2="183.63" y2="172.334" gradientUnits="userSpaceOnUse">
<stop stop-color="#A8B7DE"/>
<stop offset="1" stop-color="#BDC9E5"/>
</linearGradient>
<linearGradient id="paint5_linear_813_2402" x1="274.833" y1="45.7868" x2="296.669" y2="-17.417" gradientUnits="userSpaceOnUse">
<stop stop-color="#AAB9DF"/>
<stop offset="1" stop-color="#AAB9DF"/>
</linearGradient>
<linearGradient id="paint6_linear_813_2402" x1="147.506" y1="119.345" x2="112.99" y2="234.934" gradientUnits="userSpaceOnUse">
<stop stop-color="#AAB9DE"/>
<stop offset="1" stop-color="#CED7EC"/>
</linearGradient>
<linearGradient id="paint7_linear_813_2402" x1="240.786" y1="163.714" x2="260.234" y2="215.341" gradientUnits="userSpaceOnUse">
<stop stop-color="#F4AE7C"/>
<stop offset="1" stop-color="#F4AE7C"/>
</linearGradient>
<linearGradient id="paint8_linear_813_2402" x1="252.112" y1="150.258" x2="265.208" y2="203.611" gradientUnits="userSpaceOnUse">
<stop stop-color="#6998D0"/>
<stop offset="1" stop-color="#042564"/>
</linearGradient>
<linearGradient id="paint9_linear_813_2402" x1="279.292" y1="266.217" x2="259.924" y2="266.217" gradientUnits="userSpaceOnUse">
<stop stop-color="#0F3D86"/>
<stop offset="1" stop-color="#042564"/>
</linearGradient>
<linearGradient id="paint10_linear_813_2402" x1="269.608" y1="198.978" x2="269.608" y2="227.516" gradientUnits="userSpaceOnUse">
<stop stop-color="#09005D"/>
<stop offset="1" stop-color="#1A0F91"/>
</linearGradient>
<linearGradient id="paint11_linear_813_2402" x1="313.799" y1="266.265" x2="304.73" y2="266.265" gradientUnits="userSpaceOnUse">
<stop stop-color="#042564"/>
<stop offset="1" stop-color="#042564"/>
</linearGradient>
<linearGradient id="paint12_linear_813_2402" x1="309.4" y1="198.977" x2="309.4" y2="227.516" gradientUnits="userSpaceOnUse">
<stop stop-color="#09005D"/>
<stop offset="1" stop-color="#1A0F91"/>
</linearGradient>
<linearGradient id="paint13_linear_813_2402" x1="309.74" y1="260.181" x2="304.246" y2="260.181" gradientUnits="userSpaceOnUse">
<stop stop-color="#F4AE7C"/>
<stop offset="1" stop-color="#F4AE7C"/>
</linearGradient>
<linearGradient id="paint14_linear_813_2402" x1="278.307" y1="259.64" x2="273.402" y2="259.64" gradientUnits="userSpaceOnUse">
<stop stop-color="#F4AE7C"/>
<stop offset="1" stop-color="#E9C5B5"/>
</linearGradient>
<linearGradient id="paint15_linear_813_2402" x1="286.825" y1="245.23" x2="288.283" y2="155.167" gradientUnits="userSpaceOnUse">
<stop stop-color="#0F3D86"/>
<stop offset="1" stop-color="#0F3D86"/>
</linearGradient>
<linearGradient id="paint16_linear_813_2402" x1="266.113" y1="184.376" x2="286.14" y2="210.315" gradientUnits="userSpaceOnUse">
<stop stop-color="#4F52FF"/>
<stop offset="1" stop-color="#4042E2"/>
</linearGradient>
<linearGradient id="paint17_linear_813_2402" x1="227.229" y1="-28.7737" x2="219.808" y2="-62.0089" gradientUnits="userSpaceOnUse">
<stop stop-color="#6998D0"/>
<stop offset="1" stop-color="#6998D0"/>
</linearGradient>
<linearGradient id="paint18_linear_813_2402" x1="263.663" y1="137.908" x2="261.255" y2="123.034" gradientUnits="userSpaceOnUse">
<stop stop-color="#F4AE7C"/>
<stop offset="1" stop-color="#F4AE7C"/>
</linearGradient>
<linearGradient id="paint19_linear_813_2402" x1="278.151" y1="170.126" x2="304.025" y2="126.414" gradientUnits="userSpaceOnUse">
<stop stop-color="#09005D"/>
<stop offset="1" stop-color="#1A0F91"/>
</linearGradient>
<linearGradient id="paint20_linear_813_2402" x1="209.152" y1="129.284" x2="235.026" y2="85.5721" gradientUnits="userSpaceOnUse">
<stop stop-color="#09005D"/>
<stop offset="1" stop-color="#1A0F91"/>
</linearGradient>
<linearGradient id="paint21_linear_813_2402" x1="557.473" y1="826.735" x2="522.861" y2="764.05" gradientUnits="userSpaceOnUse">
<stop stop-color="#042564"/>
<stop offset="1" stop-color="#042564"/>
</linearGradient>
<linearGradient id="paint22_linear_813_2402" x1="636.44" y1="701.41" x2="606.032" y2="629.293" gradientUnits="userSpaceOnUse">
<stop stop-color="#042564"/>
<stop offset="1" stop-color="#042564"/>
</linearGradient>
<linearGradient id="paint23_linear_813_2402" x1="253.49" y1="-34.6375" x2="246.069" y2="-67.8727" gradientUnits="userSpaceOnUse">
<stop stop-color="#F4AE7C"/>
<stop offset="1" stop-color="#F4AE7C"/>
</linearGradient>
<linearGradient id="paint24_linear_813_2402" x1="248.304" y1="-33.48" x2="240.883" y2="-66.7151" gradientUnits="userSpaceOnUse">
<stop stop-color="#6998D0"/>
<stop offset="1" stop-color="#1A2B4D"/>
</linearGradient>
<linearGradient id="paint25_linear_813_2402" x1="227.069" y1="168.882" x2="246.516" y2="220.509" gradientUnits="userSpaceOnUse">
<stop stop-color="#F4AE7C"/>
<stop offset="1" stop-color="#F4AE7C"/>
</linearGradient>
<linearGradient id="paint26_linear_813_2402" x1="288.229" y1="171.619" x2="310.376" y2="203.666" gradientUnits="userSpaceOnUse">
<stop stop-color="#F4AE7C"/>
<stop offset="1" stop-color="#FF928E"/>
<stop offset="1" stop-color="#F4AE7C"/>
</linearGradient>
<linearGradient id="paint27_linear_813_2402" x1="257.58" y1="108.101" x2="261.305" y2="133.452" gradientUnits="userSpaceOnUse">
<stop stop-color="#F4AE7C"/>
<stop offset="1" stop-color="#F4AE7C"/>
</linearGradient>
<linearGradient id="paint28_linear_813_2402" x1="265.585" y1="118.075" x2="249.383" y2="109.184" gradientUnits="userSpaceOnUse">
<stop stop-color="#0F3970"/>
<stop offset="1" stop-color="#0F3970"/>
</linearGradient>
<linearGradient id="paint29_linear_813_2402" x1="253.416" y1="123.634" x2="288.415" y2="101.559" gradientUnits="userSpaceOnUse">
<stop stop-color="#F4AE7C"/>
<stop offset="1" stop-color="#F4AE7C"/>
</linearGradient>
</defs>
</svg>
