<svg width="147" height="490" viewBox="0 0 147 490" fill="none" xmlns="http://www.w3.org/2000/svg">
<path fill-rule="evenodd" clip-rule="evenodd" d="M-111.255 132.009C-58.0752 130.107 -69.9111 113.618 -37.1321 86.3227C-23.142 74.6598 -8.33985 73.5184 10.8528 78.558C23.4396 81.8607 38.8571 84.9374 49.6102 78.1619C61.266 70.8104 59.0468 59.2793 59.1681 47.9991C59.4645 19.0155 83.7773 7.18281 105.611 -9.7136C111.257 -14.0831 115.974 -19.806 116.295 -26.5146C117.835 -58.7891 56.1782 -63.6567 36.0465 -48.5991C23.455 -39.1889 16.8073 -25.8535 4.17239 -16.3121C-7.12139 -7.78345 -17.4493 -6.81878 -32.3866 -6.58282C-56.1185 -6.20448 -75.4311 6.15722 -87.8303 21.7366C-88.6743 22.7999 -89.504 23.8662 -90.3349 24.9398C-95.8091 55.8605 -102.842 91.8273 -111.255 132.009Z" fill="#BCC9E7"/>
<path fill-rule="evenodd" clip-rule="evenodd" d="M147 527.469C129.303 477.54 113.661 492.856 72.5094 468.573C54.9303 458.212 49.2961 444.466 49.539 425.023C49.6955 412.273 48.7657 396.896 37.7881 388.388C25.8807 379.168 13.1768 384.138 0.0814972 386.826C-33.5614 393.749 -54.3447 373.647 -80.2685 357.152C-86.9723 352.888 -94.9726 349.839 -102.833 351.202C-140.648 357.765 -128.32 417.411 -105.021 432.749C-90.4576 442.345 -73.0814 445.331 -58.3533 454.934C-45.1885 463.519 -41.0625 473.067 -36.4372 487.166C-29.0848 509.565 -9.14584 524.796 12.5042 532.676C13.9812 533.211 15.4575 533.733 16.9425 534.254C54.3368 531.757 98.0274 529.483 147 527.469Z" fill="#BCC9E7"/>
</svg>
